<svg width="189" height="56" viewBox="0 0 189 56" fill="none" xmlns="http://www.w3.org/2000/svg">
<g clip-path="url(#clip0_486_1694)">
<path d="M182.276 56H6.6206C2.9708 56 0 53.0208 0 49.3738V6.6164C0 2.968 2.9708 0 6.6206 0H182.276C185.924 0 189 2.968 189 6.6164V49.3738C189 53.0208 185.924 56 182.276 56Z" fill="#A6A6A6"/>
<path d="M187.645 49.3752C187.645 52.3376 185.245 54.7372 182.277 54.7372H6.62069C3.65409 54.7372 1.24609 52.3376 1.24609 49.3752V6.615C1.24609 3.654 3.65409 1.246 6.62069 1.246H182.276C185.245 1.246 187.643 3.654 187.643 6.615L187.645 49.3752Z" fill="black"/>
<path d="M42.1792 27.6976C42.1386 23.1854 45.8738 20.9902 46.0446 20.888C43.9292 17.8038 40.6504 17.3824 39.4982 17.3488C36.7444 17.059 34.0732 18.9966 32.6704 18.9966C31.2396 18.9966 29.0794 17.3768 26.7512 17.4244C23.7552 17.4706 20.9524 19.2052 19.4152 21.8988C16.2428 27.391 18.6088 35.462 21.6482 39.9014C23.1686 42.0756 24.9452 44.5032 27.2706 44.4178C29.5456 44.324 30.3954 42.9674 33.1408 42.9674C35.861 42.9674 36.659 44.4178 39.0306 44.3632C41.4722 44.324 43.0094 42.1792 44.4766 39.9854C46.2336 37.4934 46.9392 35.0392 46.9672 34.9132C46.9098 34.8936 42.2254 33.1058 42.1792 27.6976Z" fill="white"/>
<path d="M37.6994 14.4284C38.923 12.8982 39.7602 10.8164 39.5278 8.7038C37.7568 8.7822 35.542 9.9288 34.2666 11.4254C33.1382 12.7442 32.1302 14.9058 32.3906 16.9386C34.38 17.087 36.4226 15.9348 37.6994 14.4284Z" fill="white"/>
<path d="M75.103 44.1056H71.9236L70.182 38.633H64.1284L62.4694 44.1056H59.374L65.3716 25.4744H69.076L75.103 44.1056ZM69.657 36.337L68.082 31.472C67.9154 30.975 67.6032 29.8046 67.1426 27.9622H67.0866C66.9032 28.7546 66.6078 29.925 66.2018 31.472L64.6548 36.337H69.657Z" fill="white"/>
<path d="M90.5268 37.2232C90.5268 39.508 89.9094 41.314 88.6746 42.6398C87.5686 43.82 86.1952 44.4094 84.5558 44.4094C82.7862 44.4094 81.515 43.7738 80.7408 42.5026H80.6848V49.5796H77.7V35.0938C77.7 33.6574 77.6622 32.1832 77.5894 30.6712H80.2144L80.381 32.8006H80.437C81.4324 31.1962 82.943 30.3954 84.9702 30.3954C86.555 30.3954 87.878 31.0212 88.9364 32.2742C89.9976 33.5286 90.5268 35.1778 90.5268 37.2232ZM87.486 37.3324C87.486 36.0248 87.192 34.9468 86.6012 34.0984C85.9558 33.2136 85.0892 32.7712 84.0028 32.7712C83.2664 32.7712 82.5972 33.0176 81.9994 33.5034C81.4002 33.9934 81.0082 34.6332 80.8248 35.4256C80.7324 35.7952 80.6862 36.0976 80.6862 36.3356V38.5756C80.6862 39.5528 80.9858 40.3774 81.585 41.0508C82.1842 41.7242 82.9626 42.0602 83.9202 42.0602C85.0444 42.0602 85.9194 41.6262 86.5452 40.761C87.1724 39.8944 87.486 38.752 87.486 37.3324Z" fill="white"/>
<path d="M105.978 37.2232C105.978 39.508 105.361 41.314 104.125 42.6398C103.02 43.82 101.647 44.4094 100.007 44.4094C98.2379 44.4094 96.9667 43.7738 96.1939 42.5026H96.1379V49.5796H93.1531V35.0938C93.1531 33.6574 93.1153 32.1832 93.0425 30.6712H95.6675L95.8341 32.8006H95.8901C96.8841 31.1962 98.3947 30.3954 100.423 30.3954C102.007 30.3954 103.33 31.0212 104.391 32.2742C105.448 33.5286 105.978 35.1778 105.978 37.2232ZM102.938 37.3324C102.938 36.0248 102.642 34.9468 102.051 34.0984C101.406 33.2136 100.542 32.7712 99.4545 32.7712C98.7167 32.7712 98.0489 33.0176 97.4497 33.5034C96.8505 33.9934 96.4599 34.6332 96.2765 35.4256C96.1855 35.7952 96.1379 36.0976 96.1379 36.3356V38.5756C96.1379 39.5528 96.4375 40.3774 97.0339 41.0508C97.6331 41.7228 98.4115 42.0602 99.3719 42.0602C100.496 42.0602 101.371 41.6262 101.997 40.761C102.624 39.8944 102.938 38.752 102.938 37.3324Z" fill="white"/>
<path d="M123.255 38.8808C123.255 40.4656 122.704 41.755 121.6 42.7504C120.386 43.8382 118.696 44.3814 116.525 44.3814C114.52 44.3814 112.913 43.995 111.696 43.2208L112.388 40.733C113.698 41.5254 115.136 41.923 116.703 41.923C117.827 41.923 118.702 41.6682 119.33 41.1614C119.956 40.6546 120.268 39.9742 120.268 39.1258C120.268 38.3698 120.011 37.7328 119.494 37.2162C118.98 36.6996 118.122 36.2194 116.924 35.7756C113.662 34.559 112.032 32.7768 112.032 30.4332C112.032 28.9016 112.603 27.6458 113.747 26.6686C114.887 25.69 116.407 25.2014 118.308 25.2014C120.004 25.2014 121.412 25.4968 122.536 26.0862L121.79 28.5194C120.74 27.9482 119.553 27.6626 118.224 27.6626C117.174 27.6626 116.354 27.9216 115.766 28.4368C115.269 28.8974 115.02 29.4588 115.02 30.1238C115.02 30.8602 115.304 31.4692 115.875 31.948C116.372 32.3904 117.275 32.8692 118.586 33.3858C120.189 34.0312 121.366 34.7858 122.123 35.651C122.878 36.5134 123.255 37.5928 123.255 38.8808Z" fill="white"/>
<path d="M133.123 32.9112H129.833V39.4338C129.833 41.0928 130.413 41.9216 131.575 41.9216C132.108 41.9216 132.55 41.8754 132.9 41.783L132.983 44.0496C132.395 44.2694 131.621 44.38 130.662 44.38C129.483 44.38 128.562 44.0202 127.897 43.302C127.235 42.5824 126.901 41.3756 126.901 39.6802V32.9084H124.941V30.6684H126.901V28.2086L129.833 27.3238V30.6684H133.123V32.9112Z" fill="white"/>
<path d="M147.967 37.2778C147.967 39.3428 147.376 41.0382 146.198 42.364C144.961 43.729 143.321 44.4094 141.275 44.4094C139.304 44.4094 137.735 43.7556 136.564 42.448C135.394 41.1404 134.809 39.4898 134.809 37.5004C134.809 35.4186 135.411 33.7134 136.619 32.3876C137.824 31.0604 139.451 30.3968 141.496 30.3968C143.468 30.3968 145.054 31.0506 146.251 32.3596C147.396 33.6294 147.967 35.2688 147.967 37.2778ZM144.87 37.3744C144.87 36.1354 144.606 35.0728 144.07 34.1866C143.444 33.1142 142.549 32.5794 141.39 32.5794C140.19 32.5794 139.279 33.1156 138.653 34.1866C138.117 35.0742 137.852 36.1536 137.852 37.4304C137.852 38.6694 138.117 39.732 138.653 40.6168C139.298 41.6892 140.2 42.224 141.363 42.224C142.503 42.224 143.398 41.678 144.043 40.5888C144.593 39.6858 144.87 38.612 144.87 37.3744Z" fill="white"/>
<path d="M157.67 33.2962C157.374 33.2416 157.059 33.2136 156.729 33.2136C155.679 33.2136 154.867 33.6098 154.296 34.4036C153.799 35.1036 153.549 35.9884 153.549 37.0566V44.1056H150.566L150.594 34.902C150.594 33.3536 150.556 31.9438 150.482 30.6726H153.082L153.191 33.243H153.274C153.589 32.3596 154.086 31.6484 154.766 31.115C155.431 30.6348 156.149 30.3954 156.923 30.3954C157.199 30.3954 157.448 30.415 157.67 30.45V33.2962Z" fill="white"/>
<path d="M171.018 36.7528C171.018 37.2876 170.983 37.7384 170.909 38.1066H161.955C161.99 39.4338 162.422 40.4488 163.254 41.1488C164.009 41.7746 164.984 42.0882 166.183 42.0882C167.509 42.0882 168.718 41.8768 169.806 41.4526L170.274 43.5246C169.002 44.079 167.502 44.3548 165.77 44.3548C163.687 44.3548 162.051 43.7416 160.861 42.5166C159.674 41.2916 159.079 39.6466 159.079 37.583C159.079 35.5572 159.632 33.8702 160.74 32.5248C161.899 31.0884 163.465 30.3702 165.437 30.3702C167.373 30.3702 168.839 31.0884 169.834 32.5248C170.622 33.6658 171.018 35.077 171.018 36.7528ZM168.172 35.9786C168.192 35.0938 167.997 34.3294 167.593 33.684C167.076 32.8538 166.282 32.4394 165.214 32.4394C164.238 32.4394 163.444 32.844 162.838 33.656C162.341 34.3014 162.046 35.0756 161.955 35.9772L168.172 35.9786Z" fill="white"/>
<path d="M68.6701 14.0126C68.6701 15.6604 68.1759 16.9008 67.1889 17.7338C66.2747 18.5024 64.9755 18.8874 63.2927 18.8874C62.4583 18.8874 61.7443 18.851 61.1465 18.7782V9.77481C61.9263 9.64881 62.7663 9.58441 63.6735 9.58441C65.2765 9.58441 66.4847 9.93301 67.2995 10.6302C68.2123 11.4184 68.6701 12.5454 68.6701 14.0126ZM67.1231 14.0532C67.1231 12.985 66.8403 12.166 66.2747 11.5948C65.7091 11.025 64.8831 10.7394 63.7953 10.7394C63.3333 10.7394 62.9399 10.7702 62.6137 10.8346V17.6792C62.7943 17.7072 63.1247 17.7198 63.6049 17.7198C64.7277 17.7198 65.5943 17.4076 66.2047 16.7832C66.8151 16.1588 67.1231 15.2488 67.1231 14.0532Z" fill="white"/>
<path d="M76.8725 15.4518C76.8725 16.4668 76.5827 17.2984 76.0031 17.9508C75.3955 18.6214 74.5905 18.956 73.5853 18.956C72.6165 18.956 71.8451 18.6354 71.2697 17.9914C70.6957 17.3488 70.4087 16.5382 70.4087 15.561C70.4087 14.539 70.7041 13.7004 71.2977 13.0494C71.8913 12.3984 72.6893 12.0722 73.6945 12.0722C74.6633 12.0722 75.4417 12.3928 76.0311 13.0354C76.5911 13.6598 76.8725 14.4662 76.8725 15.4518ZM75.3507 15.4994C75.3507 14.8904 75.2191 14.3682 74.9573 13.9328C74.6493 13.4064 74.2111 13.1432 73.6413 13.1432C73.0519 13.1432 72.6039 13.4064 72.2959 13.9328C72.0327 14.3682 71.9025 14.8988 71.9025 15.526C71.9025 16.135 72.0341 16.6572 72.2959 17.0926C72.6137 17.619 73.0561 17.8822 73.6273 17.8822C74.1873 17.8822 74.6269 17.6148 74.9433 17.0786C75.2149 16.6348 75.3507 16.1084 75.3507 15.4994Z" fill="white"/>
<path d="M87.8711 12.2066L85.8061 18.8062H84.4621L83.6067 15.9404C83.3897 15.225 83.2133 14.5138 83.0761 13.8082H83.0495C82.9221 14.5334 82.7457 15.2432 82.5189 15.9404L81.6103 18.8062H80.2509L78.3091 12.2066H79.8169L80.5631 15.344C80.7437 16.086 80.8921 16.793 81.0111 17.4622H81.0377C81.1469 16.9106 81.3275 16.2078 81.5823 15.358L82.5189 12.208H83.7145L84.6119 15.2908C84.8289 16.0426 85.0053 16.7664 85.1411 17.4636H85.1817C85.2811 16.7846 85.4309 16.0608 85.6297 15.2908L86.4305 12.208H87.8711V12.2066Z" fill="white"/>
<path d="M95.4772 18.8062H94.01V15.0262C94.01 13.8614 93.5676 13.279 92.68 13.279C92.2446 13.279 91.8932 13.4386 91.6202 13.7592C91.35 14.0798 91.2128 14.4578 91.2128 14.8904V18.8048H89.7456V14.0924C89.7456 13.5128 89.7274 12.8842 89.6924 12.2038H90.9818L91.0504 13.2356H91.091C91.2618 12.915 91.5166 12.6504 91.8512 12.439C92.2488 12.1926 92.694 12.068 93.1812 12.068C93.7972 12.068 94.3096 12.2668 94.717 12.6658C95.2238 13.1544 95.4772 13.8838 95.4772 14.8526V18.8062Z" fill="white"/>
<path d="M99.5234 18.8062H98.0576V9.17841H99.5234V18.8062Z" fill="white"/>
<path d="M108.161 15.4518C108.161 16.4668 107.871 17.2984 107.292 17.9508C106.684 18.6214 105.878 18.956 104.874 18.956C103.904 18.956 103.132 18.6354 102.558 17.9914C101.984 17.3488 101.697 16.5382 101.697 15.561C101.697 14.539 101.993 13.7004 102.586 13.0494C103.18 12.3984 103.978 12.0722 104.982 12.0722C105.952 12.0722 106.729 12.3928 107.32 13.0354C107.88 13.6598 108.161 14.4662 108.161 15.4518ZM106.638 15.4994C106.638 14.8904 106.506 14.3682 106.244 13.9328C105.938 13.4064 105.498 13.1432 104.93 13.1432C104.339 13.1432 103.891 13.4064 103.584 13.9328C103.321 14.3682 103.191 14.8988 103.191 15.526C103.191 16.135 103.323 16.6572 103.584 17.0926C103.902 17.619 104.345 17.8822 104.916 17.8822C105.476 17.8822 105.914 17.6148 106.23 17.0786C106.503 16.6348 106.638 16.1084 106.638 15.4994Z" fill="white"/>
<path d="M115.262 18.8062H113.945L113.836 18.046H113.795C113.344 18.6522 112.702 18.956 111.867 18.956C111.244 18.956 110.74 18.7558 110.361 18.3582C110.016 17.997 109.844 17.5476 109.844 17.0142C109.844 16.2078 110.18 15.5932 110.856 15.1676C111.531 14.742 112.48 14.5334 113.703 14.5432V14.42C113.703 13.5506 113.246 13.1166 112.332 13.1166C111.681 13.1166 111.107 13.2804 110.611 13.6052L110.313 12.642C110.926 12.2626 111.684 12.0722 112.577 12.0722C114.302 12.0722 115.167 12.9822 115.167 14.8022V17.2326C115.167 17.892 115.199 18.417 115.262 18.8062ZM113.739 16.5382V15.5204C112.121 15.4924 111.311 15.9362 111.311 16.8504C111.311 17.1948 111.404 17.4524 111.593 17.6246C111.782 17.7968 112.023 17.8822 112.31 17.8822C112.632 17.8822 112.933 17.78 113.207 17.577C113.483 17.3726 113.652 17.1136 113.715 16.7958C113.731 16.7244 113.739 16.6376 113.739 16.5382Z" fill="white"/>
<path d="M123.599 18.8062H122.297L122.229 17.7464H122.188C121.772 18.5528 121.064 18.956 120.069 18.956C119.273 18.956 118.611 18.6438 118.086 18.0194C117.561 17.395 117.299 16.5844 117.299 15.589C117.299 14.5208 117.584 13.6556 118.155 12.9948C118.708 12.3788 119.385 12.0708 120.192 12.0708C121.078 12.0708 121.698 12.369 122.051 12.9668H122.079V9.17841H123.548V17.0282C123.548 17.6708 123.564 18.263 123.599 18.8062ZM122.079 16.023V14.9226C122.079 14.7322 122.065 14.5782 122.038 14.4606C121.956 14.1078 121.778 13.811 121.508 13.5716C121.235 13.3322 120.906 13.2118 120.526 13.2118C119.979 13.2118 119.551 13.4288 119.236 13.8642C118.923 14.2996 118.765 14.8554 118.765 15.5344C118.765 16.1868 118.915 16.716 119.216 17.1234C119.534 17.5574 119.962 17.7744 120.498 17.7744C120.98 17.7744 121.365 17.5938 121.658 17.2312C121.94 16.8966 122.079 16.4934 122.079 16.023Z" fill="white"/>
<path d="M136.147 15.4518C136.147 16.4668 135.858 17.2984 135.278 17.9508C134.67 18.6214 133.867 18.956 132.86 18.956C131.893 18.956 131.121 18.6354 130.545 17.9914C129.971 17.3488 129.684 16.5382 129.684 15.561C129.684 14.539 129.979 13.7004 130.573 13.0494C131.166 12.3984 131.964 12.0722 132.971 12.0722C133.938 12.0722 134.718 12.3928 135.306 13.0354C135.866 13.6598 136.147 14.4662 136.147 15.4518ZM134.627 15.4994C134.627 14.8904 134.495 14.3682 134.234 13.9328C133.924 13.4064 133.487 13.1432 132.916 13.1432C132.328 13.1432 131.88 13.4064 131.571 13.9328C131.308 14.3682 131.177 14.8988 131.177 15.526C131.177 16.135 131.309 16.6572 131.571 17.0926C131.889 17.619 132.331 17.8822 132.902 17.8822C133.462 17.8822 133.903 17.6148 134.22 17.0786C134.49 16.6348 134.627 16.1084 134.627 15.4994Z" fill="white"/>
<path d="M144.036 18.8062H142.571V15.0262C142.571 13.8614 142.128 13.279 141.239 13.279C140.804 13.279 140.452 13.4386 140.181 13.7592C139.909 14.0798 139.773 14.4578 139.773 14.8904V18.8048H138.305V14.0924C138.305 13.5128 138.288 12.8842 138.253 12.2038H139.541L139.61 13.2356H139.65C139.822 12.915 140.077 12.6504 140.41 12.439C140.809 12.1926 141.253 12.068 141.742 12.068C142.356 12.068 142.869 12.2668 143.276 12.6658C143.784 13.1544 144.036 13.8838 144.036 14.8526V18.8062Z" fill="white"/>
<path d="M153.911 13.3056H152.295V16.5116C152.295 17.3264 152.582 17.7338 153.15 17.7338C153.414 17.7338 153.632 17.7114 153.804 17.6652L153.842 18.7782C153.552 18.8874 153.171 18.942 152.702 18.942C152.123 18.942 151.672 18.7656 151.346 18.4128C151.018 18.06 150.856 17.4664 150.856 16.6334V13.3056H149.891V12.2066H150.856V10.997L152.294 10.563V12.2052H153.909L153.911 13.3056Z" fill="white"/>
<path d="M161.678 18.8062H160.209V15.0542C160.209 13.8712 159.767 13.279 158.881 13.279C158.2 13.279 157.735 13.622 157.481 14.308C157.437 14.4522 157.412 14.6286 157.412 14.8358V18.8048H155.946V9.17841H157.412V13.1558H157.44C157.902 12.432 158.564 12.0708 159.422 12.0708C160.03 12.0708 160.533 12.2696 160.932 12.6686C161.429 13.1656 161.678 13.9048 161.678 14.882V18.8062Z" fill="white"/>
<path d="M169.69 15.1942C169.69 15.4574 169.67 15.6786 169.635 15.8592H165.235C165.254 16.5116 165.464 17.0086 165.872 17.353C166.244 17.661 166.724 17.815 167.312 17.815C167.963 17.815 168.557 17.7114 169.092 17.5028L169.321 18.522C168.696 18.7936 167.959 18.9294 167.107 18.9294C166.085 18.9294 165.28 18.6284 164.697 18.0264C164.112 17.4244 163.822 16.6166 163.822 15.603C163.822 14.6076 164.092 13.7788 164.637 13.118C165.205 12.4124 165.974 12.0596 166.944 12.0596C167.893 12.0596 168.614 12.4124 169.102 13.118C169.495 13.678 169.69 14.371 169.69 15.1942ZM168.29 14.8148C168.301 14.3794 168.204 14.0042 168.005 13.6878C167.751 13.2804 167.363 13.076 166.838 13.076C166.359 13.076 165.968 13.2748 165.67 13.6738C165.427 13.9916 165.282 14.371 165.235 14.8148H168.29Z" fill="white"/>
</g>
<defs>
<clipPath id="clip0_486_1694">
<rect width="189" height="56" fill="white"/>
</clipPath>
</defs>
</svg>
