<svg width="61" height="61" viewBox="0 0 61 61" fill="none" xmlns="http://www.w3.org/2000/svg">
<rect width="61" height="61" rx="12" fill="#282828"/>
<path d="M22.5 53C26.6512 53 30 49.8744 30 46V39H22.5C18.3488 39 15 42.1256 15 46C15 49.8744 18.3488 53 22.5 53Z" fill="#0ACF83"/>
<path d="M14.625 31.1797C14.625 26.9031 18.075 23.4531 22.3516 23.4531H30.0781V38.9062H22.3516C18.075 38.9062 14.625 35.4563 14.625 31.1797Z" fill="#A259FF"/>
<path d="M14.625 15.7266C14.625 11.45 18.075 8 22.3516 8H30.0781V23.4531H22.3516C18.075 23.4531 14.625 20.0031 14.625 15.7266Z" fill="#F24E1E"/>
<path d="M30.0781 8H37.8047C42.0813 8 45.5312 11.45 45.5312 15.7266C45.5312 20.0031 42.0813 23.4531 37.8047 23.4531H30.0781V8Z" fill="#FF7262"/>
<path d="M45.5312 31.1797C45.5312 35.4563 42.0813 38.9062 37.8047 38.9062C33.5281 38.9062 30.0781 35.4563 30.0781 31.1797C30.0781 26.9031 33.5281 23.4531 37.8047 23.4531C42.0813 23.4531 45.5312 26.9031 45.5312 31.1797Z" fill="#1ABCFE"/>
<path d="M22.8987 53C27.0625 53 30.4215 49.8744 30.4215 46V39H22.8987C18.735 39 15.376 42.1256 15.376 46C15.376 49.8744 18.735 53 22.8987 53Z" fill="#0ACF83"/>
<path d="M15 31.1797C15 26.9031 18.4605 23.4531 22.75 23.4531H30.5V38.9062H22.75C18.4605 38.9062 15 35.4563 15 31.1797Z" fill="#A259FF"/>
<path d="M15 15.7266C15 11.45 18.4605 8 22.75 8H30.5V23.4531H22.75C18.4605 23.4531 15 20.0031 15 15.7266Z" fill="#F24E1E"/>
<path d="M30.5 8H38.25C42.5395 8 46 11.45 46 15.7266C46 20.0031 42.5395 23.4531 38.25 23.4531H30.5V8Z" fill="#FF7262"/>
<path d="M46 31.1797C46 35.4563 42.5395 38.9062 38.25 38.9062C33.9605 38.9062 30.5 35.4563 30.5 31.1797C30.5 26.9031 33.9605 23.4531 38.25 23.4531C42.5395 23.4531 46 26.9031 46 31.1797Z" fill="#1ABCFE"/>
</svg>
