<svg width="190" height="56" viewBox="0 0 190 56" fill="none" xmlns="http://www.w3.org/2000/svg">
<g clip-path="url(#clip0_486_1684)">
<path d="M182.747 56H7.24656C3.38556 56 0.226562 52.85 0.226562 49V7C0.226562 3.15 3.38556 0 7.24656 0H182.747C186.608 0 189.767 3.15 189.767 7V49C189.767 52.85 186.608 56 182.747 56Z" fill="black"/>
<path d="M182.747 1.12C184.31 1.12 185.81 1.7395 186.916 2.84221C188.022 3.94493 188.643 5.44053 188.643 7V49C188.643 50.5595 188.022 52.0551 186.916 53.1578C185.81 54.2605 184.31 54.88 182.747 54.88H7.24656C5.68263 54.88 4.18276 54.2605 3.07689 53.1578C1.97103 52.0551 1.34976 50.5595 1.34976 49V7C1.34976 5.44053 1.97103 3.94493 3.07689 2.84221C4.18276 1.7395 5.68263 1.12 7.24656 1.12H182.747ZM182.747 0H7.24656C3.38556 0 0.226562 3.15 0.226562 7V49C0.226562 52.85 3.38556 56 7.24656 56H182.747C186.608 56 189.767 52.85 189.767 49V7C189.767 3.15 186.608 0 182.747 0Z" fill="#A6A6A6"/>
<path d="M66.8129 14.3355C66.8129 15.5115 66.4619 16.4495 65.7599 17.1355C64.9737 17.9615 63.9488 18.3815 62.6711 18.3815C61.4496 18.3815 60.4107 17.9615 59.5683 17.1215C58.7259 16.2815 58.3047 15.2315 58.3047 13.9995C58.3047 12.7675 58.7259 11.7175 59.5683 10.8775C60.4107 10.0375 61.4496 9.60352 62.6711 9.60352C63.2889 9.60352 63.8786 9.71551 64.4261 9.92551C64.9737 10.1495 65.423 10.4575 65.774 10.8495L65.0018 11.6195C64.749 11.3115 64.4121 11.0595 63.9909 10.8915C63.5747 10.711 63.1249 10.6203 62.6711 10.6255C61.7585 10.6255 60.9723 10.9475 60.3405 11.5775C59.7087 12.2215 59.3998 13.0195 59.3998 13.9855C59.3998 14.9515 59.7087 15.7495 60.3405 16.3935C60.9723 17.0235 61.7445 17.3455 62.6711 17.3455C63.5135 17.3455 64.2015 17.1075 64.7631 16.6455C65.3247 16.1835 65.6476 15.5255 65.7318 14.7135H62.6711V13.7055H66.7568C66.7848 13.9295 66.8129 14.1395 66.8129 14.3355ZM73.2854 9.79951V10.8355H69.4524V13.4955H72.9063V14.5035H69.4524V17.1635H73.2854V18.1995H68.3714V9.79951H73.2854ZM77.8484 10.8355V18.1995H76.7673V10.8355H74.4086V9.79951H80.193V10.8355H77.8484ZM85.4721 18.1995H84.391V9.79951H85.4721V18.1995ZM90.2738 10.8355V18.1995H89.1927V10.8355H86.834V9.79951H92.6185V10.8355H90.2738ZM104.819 13.9995C104.819 15.2455 104.398 16.2815 103.57 17.1215C102.727 17.9615 101.702 18.3815 100.481 18.3815C99.2594 18.3815 98.2344 17.9615 97.392 17.1215C96.5637 16.2815 96.1425 15.2455 96.1425 13.9995C96.1425 12.7535 96.5637 11.7175 97.392 10.8775C98.2204 10.0375 99.2453 9.60352 100.481 9.60352C101.702 9.60352 102.727 10.0235 103.57 10.8775C104.412 11.7315 104.819 12.7675 104.819 13.9995ZM97.2657 13.9995C97.2657 14.9655 97.5746 15.7775 98.1783 16.4075C98.7961 17.0375 99.5682 17.3595 100.481 17.3595C101.393 17.3595 102.166 17.0375 102.769 16.4075C103.387 15.7775 103.696 14.9795 103.696 13.9995C103.696 13.0195 103.387 12.2215 102.769 11.5915C102.152 10.9615 101.393 10.6395 100.481 10.6395C99.5682 10.6395 98.7961 10.9615 98.1783 11.5915C97.5746 12.2215 97.2657 13.0335 97.2657 13.9995ZM107.417 18.1995H106.336V9.79951H107.655L111.755 16.3375H111.797L111.755 14.7135V9.79951H112.836V18.1995H111.713L107.431 11.3535H107.389L107.431 12.9775V18.1995H107.417Z" fill="white"/>
<path d="M95.9 30.4491C92.6006 30.4491 89.9049 32.9551 89.9049 36.3991C89.9049 39.8291 92.6006 42.3491 95.9 42.3491C99.1994 42.3491 101.895 39.8291 101.895 36.3991C101.895 32.9551 99.1994 30.4491 95.9 30.4491ZM95.9 40.0111C94.0888 40.0111 92.5304 38.5271 92.5304 36.3991C92.5304 34.2571 94.0888 32.7871 95.9 32.7871C97.7111 32.7871 99.2696 34.2571 99.2696 36.3991C99.2696 38.5271 97.6971 40.0111 95.9 40.0111ZM82.8147 30.4491C79.5153 30.4491 76.8196 32.9551 76.8196 36.3991C76.8196 39.8291 79.5153 42.3491 82.8147 42.3491C86.1141 42.3491 88.8098 39.8291 88.8098 36.3991C88.8098 32.9551 86.1141 30.4491 82.8147 30.4491ZM82.8147 40.0111C81.0035 40.0111 79.4451 38.5271 79.4451 36.3991C79.4451 34.2571 81.0035 32.7871 82.8147 32.7871C84.6258 32.7871 86.1843 34.2571 86.1843 36.3991C86.1843 38.5271 84.6258 40.0111 82.8147 40.0111ZM67.2584 32.2831V34.8031H73.3236C73.1411 36.2171 72.6638 37.2671 71.9477 37.9811C71.0632 38.8631 69.6873 39.8291 67.2724 39.8291C63.5378 39.8291 60.6174 36.8331 60.6174 33.1091C60.6174 29.3851 63.5378 26.3891 67.2724 26.3891C69.2801 26.3891 70.7543 27.1731 71.8354 28.1951L73.6185 26.4171C72.1022 24.9751 70.0944 23.8691 67.2584 23.8691C62.1478 23.8691 57.8516 28.0131 57.8516 33.1231C57.8516 38.2191 62.1478 42.3771 67.2584 42.3771C70.0242 42.3771 72.1022 41.4811 73.7308 39.7871C75.4016 38.1211 75.921 35.7691 75.921 33.8791C75.921 33.2911 75.8789 32.7451 75.7806 32.2971H67.2584V32.2831ZM130.874 34.2431C130.382 32.9131 128.866 30.4491 125.763 30.4491C122.688 30.4491 120.133 32.8571 120.133 36.3991C120.133 39.7311 122.66 42.3491 126.058 42.3491C128.796 42.3491 130.382 40.6831 131.028 39.7171L128.992 38.3591C128.318 39.3531 127.392 40.0111 126.058 40.0111C124.724 40.0111 123.769 39.4091 123.166 38.2051L131.154 34.9151L130.874 34.2431ZM122.73 36.2311C122.66 33.9351 124.513 32.7591 125.847 32.7591C126.886 32.7591 127.771 33.2771 128.066 34.0191L122.73 36.2311ZM116.244 41.9991H118.869V24.4991H116.244V41.9991ZM111.948 31.7791H111.849C111.26 31.0791 110.137 30.4491 108.704 30.4491C105.714 30.4491 102.976 33.0671 102.976 36.4271C102.976 39.7591 105.714 42.3631 108.704 42.3631C110.122 42.3631 111.26 41.7331 111.849 41.0051H111.934V41.8591C111.934 44.1411 110.712 45.3591 108.747 45.3591C107.146 45.3591 106.149 44.2111 105.742 43.2451L103.453 44.1971C104.113 45.7791 105.854 47.7111 108.747 47.7111C111.821 47.7111 114.419 45.9051 114.419 41.5091V30.8131H111.934V31.7791H111.948ZM108.929 40.0111C107.118 40.0111 105.602 38.4991 105.602 36.4271C105.602 34.3271 107.118 32.8011 108.929 32.8011C110.712 32.8011 112.116 34.3411 112.116 36.4271C112.13 38.4991 110.726 40.0111 108.929 40.0111ZM143.173 24.4991H136.897V41.9991H139.522V35.3631H143.187C146.093 35.3631 148.943 33.2631 148.943 29.9311C148.929 26.5991 146.065 24.4991 143.173 24.4991ZM143.229 32.9271H139.508V26.9211H143.229C145.194 26.9211 146.304 28.5451 146.304 29.9171C146.304 31.2891 145.194 32.9271 143.229 32.9271ZM159.431 30.4211C157.536 30.4211 155.57 31.2611 154.756 33.0951L157.086 34.0611C157.578 33.0951 158.504 32.7731 159.473 32.7731C160.821 32.7731 162.211 33.5851 162.225 35.0271V35.2091C161.748 34.9431 160.737 34.5371 159.487 34.5371C156.974 34.5371 154.433 35.9091 154.433 38.4711C154.433 40.8091 156.483 42.3211 158.785 42.3211C160.54 42.3211 161.523 41.5371 162.127 40.6131H162.211V41.9571H164.738V35.2511C164.752 32.1571 162.421 30.4211 159.431 30.4211ZM159.108 40.0111C158.252 40.0111 157.058 39.5771 157.058 38.5271C157.058 37.1831 158.546 36.6651 159.838 36.6651C160.989 36.6651 161.537 36.9171 162.225 37.2531C162.128 38.0109 161.758 38.7078 161.185 39.2149C160.612 39.7219 159.874 40.0048 159.108 40.0111ZM173.962 30.7991L170.958 38.3871H170.874L167.757 30.7991H164.935L169.61 41.4111L166.942 47.3051H169.68L176.883 30.7991H173.962ZM150.375 41.9991H153.001V24.4991H150.375V41.9991Z" fill="white"/>
<path d="M29.3198 27.1885L14.3672 43.0085V43.0225C14.529 43.6218 14.8275 44.1757 15.2394 44.6409C15.6512 45.1062 16.1654 45.4703 16.7416 45.7047C17.3179 45.9392 17.9407 46.0377 18.5615 45.9926C19.1822 45.9474 19.7841 45.7598 20.3201 45.4445L20.3623 45.4165L37.1822 35.7425L29.3198 27.1885Z" fill="#EA4335"/>
<path d="M44.4424 24.5001L44.4284 24.4861L37.1697 20.2861L28.9844 27.5521L37.1978 35.7421L44.4284 31.5841C45.0679 31.2389 45.6023 30.7281 45.9751 30.1055C46.348 29.4828 46.5455 28.7715 46.547 28.0463C46.5484 27.3211 46.3537 26.609 45.9833 25.9849C45.6129 25.3608 45.0806 24.8479 44.4424 24.5001Z" fill="#FBBC04"/>
<path d="M14.367 12.9922C14.2827 13.3282 14.2266 13.6642 14.2266 14.0282V41.9862C14.2266 42.3502 14.2687 42.6862 14.367 43.0222L29.825 27.6082L14.367 12.9922Z" fill="#4285F4"/>
<path d="M29.4321 28.0003L37.1681 20.2863L20.3623 10.5703C19.825 10.25 19.2207 10.058 18.5967 10.0094C17.9726 9.96073 17.3457 10.0568 16.7651 10.29C16.1845 10.5232 15.6659 10.8873 15.2499 11.3536C14.8339 11.82 14.5318 12.3761 14.3672 12.9783L29.4321 28.0003Z" fill="#34A853"/>
</g>
<defs>
<clipPath id="clip0_486_1684">
<rect width="190" height="56" fill="white"/>
</clipPath>
</defs>
</svg>
