<svg width="398" height="174" viewBox="0 0 398 174" fill="none" xmlns="http://www.w3.org/2000/svg">
<path d="M91.2003 131.89C88.0946 132.065 84.9803 131.775 81.9603 131.03C80.8403 130.72 81.1803 131.56 81.2703 132.03C81.6852 133.65 82.2999 135.212 83.1003 136.68C84.0997 138.627 84.9165 140.662 85.5403 142.76C85.6644 143.412 85.6505 144.083 85.4993 144.73C85.3482 145.376 85.0632 145.984 84.6627 146.513C84.2623 147.043 83.7552 147.483 83.1744 147.804C82.5935 148.126 81.9516 148.322 81.2903 148.38C76.0803 148.38 70.8603 148.46 65.6403 148.38C60.4203 148.3 55.3803 148.27 50.2503 148.13C44.4303 147.97 38.6103 148.05 32.7903 147.85C30.5631 147.839 28.3401 147.658 26.1403 147.31C25.0579 147.056 24.1151 146.395 23.5079 145.464C22.9007 144.532 22.6759 143.403 22.8803 142.31C23.6696 138.337 24.9494 134.477 26.6903 130.82C27.3903 129.29 27.4803 127.59 28.1203 126.03C29.6503 122.28 30.8703 118.43 32.4303 114.69C33.6603 111.69 34.4303 108.6 35.4303 105.53C35.8803 104.06 36.7103 102.72 36.7503 101.1C36.755 100.093 36.4437 99.1105 35.8603 98.29C34.5603 96.15 32.7703 94.29 31.8603 91.92C31.2989 90.7032 30.6712 89.5181 29.9803 88.37C29.2248 87.2286 28.6261 85.9909 28.2003 84.69C27.8015 82.7912 27.2187 80.9358 26.4603 79.15C25.5489 76.7708 24.9506 74.2834 24.6803 71.75C23.9603 67.5 24.3103 63.25 24.2603 59C24.2603 55.58 25.2603 52.34 26.4103 49.15C27.0403 47.31 27.4603 45.35 28.6403 43.77C30.2703 41.58 31.7003 39.22 33.7603 37.35C34.1821 36.9108 34.6883 36.5614 35.2485 36.3227C35.8087 36.084 36.4113 35.9609 37.0203 35.9609C37.6292 35.9609 38.2319 36.084 38.7921 36.3227C39.3523 36.5614 39.8585 36.9108 40.2803 37.35C44.9203 41.9 49.6603 46.35 54.0803 51.13C59.3503 56.8 65.0803 62.03 70.4603 67.55C72.0803 69.2 73.8703 70.67 75.5603 72.25C76.1203 72.77 76.6103 72.91 77.1903 72.25C78.0003 71.37 78.9003 70.59 79.6603 69.66C79.9295 69.3635 80.1134 68.9996 80.1926 68.607C80.2719 68.2144 80.2434 67.8077 80.1103 67.43C79.8303 66.67 79.8003 65.89 79.6003 65.14C79.4094 64.0981 79.3323 63.0386 79.3703 61.98C79.2203 58.77 80.7303 56.16 82.4403 53.75C83.4642 52.3868 84.7545 51.2459 86.2329 50.3967C87.7113 49.5475 89.3469 49.0077 91.0403 48.81C93.535 48.3303 96.114 48.5552 98.488 49.4596C100.862 50.364 102.937 51.912 104.48 53.93C107.97 58.39 108.73 63.59 106.13 68.75C105.036 71.1938 103.241 73.2581 100.974 74.6821C98.7059 76.1061 96.0669 76.8257 93.3903 76.75C91.5546 76.9316 89.7042 76.6065 88.0403 75.81C86.6803 75.05 85.9803 75.42 84.9703 76.7C84.4464 77.4986 83.8434 78.2424 83.1703 78.92C83.0422 79.0012 82.9368 79.1135 82.8637 79.2463C82.7907 79.3792 82.7524 79.5284 82.7524 79.68C82.7524 79.8316 82.7907 79.9808 82.8637 80.1136C82.9368 80.2465 83.0422 80.3588 83.1703 80.44C85.9003 83.13 88.6003 85.85 91.3603 88.49C93.4903 90.49 95.4903 92.68 97.4803 94.85C100.9 98.59 104.67 101.98 108.27 105.54C111.53 108.77 114.66 112.11 117.84 115.42C118.4 116.026 118.883 116.697 119.28 117.42C119.465 117.775 119.554 118.173 119.536 118.573C119.519 118.974 119.396 119.362 119.18 119.7C118.373 121.124 117.32 122.393 116.07 123.45C113.818 125.646 111.199 127.43 108.33 128.72C103.446 130.915 98.1331 131.988 92.7803 131.86L91.2003 131.89ZM93.0403 122.71C96.4503 122.98 100.87 121.59 105.28 120.19C105.964 119.949 106.611 119.612 107.2 119.19C108.13 118.58 108.2 117.88 107.6 116.97C106.537 115.584 105.33 114.313 104 113.18C98.6303 107.63 93.1803 102.18 87.7503 96.68C86.9703 95.89 86.1303 95.16 85.3703 94.34C82.7903 91.58 79.9703 89.05 77.3003 86.34C75.4203 84.45 73.3603 82.71 71.6203 80.69C67.6203 76.1 63.2703 71.93 59.0103 67.69C55.7403 64.4 52.2503 61.3 48.9003 58.09C48.2632 57.6037 47.718 57.0077 47.2903 56.33C46.2903 54.26 44.3603 53.01 42.8003 51.47C41.4503 50.13 40.1403 48.75 38.8003 47.47C37.9403 46.65 37.7303 46.57 36.9803 47.47C36.6775 47.778 36.403 48.1127 36.1603 48.47C34.0331 52.4811 32.8658 56.9312 32.7503 61.47C32.6338 64.3252 32.9714 67.1807 33.7503 69.93C34.3703 71.98 34.3603 74.17 35.2003 76.23C36.4603 79.32 37.4203 82.53 39.0803 85.47C41.1503 89.15 43.1403 92.86 45.4203 96.42C46.9725 99.0183 48.9152 101.362 51.1803 103.37C53.4203 105.26 55.6903 107.12 57.9603 108.97C60.2987 110.821 62.7284 112.553 65.2403 114.16C67.9961 115.911 70.8927 117.429 73.9003 118.7C79.9169 121.4 86.4459 122.768 93.0403 122.71ZM68.4703 139.51C70.0262 139.539 71.5825 139.473 73.1303 139.31C73.9803 139.16 74.3003 138.86 74.0403 137.95C73.3041 135.611 72.3846 133.334 71.2903 131.14C70.6542 129.366 69.6292 127.756 68.2903 126.43C67.2554 125.773 66.1799 125.181 65.0703 124.66C61.2003 122.14 57.0003 120.15 53.4203 117.15C50.4817 114.921 47.7597 112.42 45.2903 109.68C44.6003 108.84 43.9803 108.89 43.5203 109.9C42.9103 111.23 42.3403 112.59 41.8403 113.98C40.6703 117.19 39.6703 120.47 38.3903 123.64C36.5203 128.28 34.9603 133.03 33.3003 137.75C33.0603 138.44 33.3003 138.75 33.9803 138.75C35.3303 138.84 36.6803 138.93 38.0303 138.96C42.2503 139.08 46.4703 139.02 50.7003 139.15C56.7603 139.37 62.8603 139.18 68.4703 139.51ZM93.2303 57.59C90.2303 57.12 88.0403 60.44 88.1003 62.79C88.1703 65.58 91.1003 68.13 94.1003 68.1C96.1003 68.1 98.7303 64.89 98.6903 62.57C98.7003 60.49 96.0903 57.03 93.2303 57.59Z" fill="white"/>
<path d="M348.86 53.0498H364.67C367.369 53.1732 370.004 53.9157 372.37 55.2198C375.757 57.0174 378.744 59.4838 381.15 62.4698C382.822 64.5164 383.91 66.9762 384.3 69.5898C384.83 72.3498 383.83 74.7098 382.65 77.0898C381.2 79.9998 378.8 81.8598 376.17 83.5598C373.189 85.4856 369.876 86.8418 366.4 87.5598C362.949 88.165 359.438 88.3664 355.94 88.1598C354.08 88.1598 352.21 88.1598 350.35 88.1598C347.08 88.1598 343.8 88.2298 340.53 88.1598C330.02 87.8798 319.53 87.9498 309.01 87.9498C308.449 87.9624 307.896 87.8206 307.41 87.5398C306.25 86.8798 306.41 86.5398 306.99 85.4098C308.16 83.1998 310.35 81.8398 311.56 79.8198C312.729 78.148 314.07 76.603 315.56 75.2098C315.844 74.876 316.201 74.6121 316.603 74.4387C317.006 74.2653 317.443 74.1869 317.88 74.2098C322.88 74.2098 327.88 74.2098 332.88 74.2098L358.59 74.2898C360.552 74.319 362.503 73.9798 364.34 73.2898C365.63 72.7998 366.9 71.3498 366.7 70.1798C366.608 69.5612 366.35 68.979 365.954 68.495C365.558 68.0109 365.038 67.6428 364.45 67.4298C363.494 67.0549 362.477 66.8583 361.45 66.8498C354.26 66.8498 347.08 66.9498 339.9 66.7798C333.9 66.6398 327.85 66.6998 321.83 66.5598C319.37 66.5098 317.31 65.1398 315.15 64.1698C313.253 63.4126 311.59 62.1672 310.33 60.5598C308.81 58.4498 307.09 56.4198 306.98 53.6298C306.98 52.7498 306.67 51.9298 306.61 51.0498C306.42 48.3398 307.61 46.0498 308.61 43.6298C308.93 42.8098 309.92 42.2598 310.52 41.5298C313.68 37.6998 318.06 36.2998 322.66 35.2098C326.58 34.2898 330.5 34.6198 334.44 34.6798C340.55 34.7898 346.65 34.7398 352.76 34.7598C358.87 34.7798 364.97 34.7598 371.08 34.8198C373.9 34.8198 376.73 34.9198 379.56 34.9998C381.03 34.9998 381.31 35.5998 380.69 36.9998C380.343 37.8466 379.83 38.6151 379.18 39.2598C376.67 41.5398 374.91 44.4698 372.46 46.8298C371.817 47.4919 371.035 48.0023 370.17 48.3241C369.305 48.6458 368.379 48.7708 367.46 48.6898C362.92 48.5498 358.37 48.6198 353.82 48.5298C345.61 48.3798 337.4 48.4498 329.18 48.4598C327.27 48.4598 326.81 49.0498 326.89 50.9598C326.878 51.3393 326.998 51.7113 327.23 52.0122C327.461 52.3131 327.79 52.5243 328.16 52.6098C329.71 52.9882 331.309 53.1198 332.9 52.9998C338.24 53.1098 343.59 53.0498 348.9 53.0498H348.86Z" fill="white"/>
<path d="M204.43 47.0601H185.04C181.517 47.1771 178.079 48.1741 175.04 49.9601L174.2 50.4102C172.915 51.0771 171.798 52.0263 170.932 53.1866C170.066 54.347 169.474 55.6884 169.2 57.1101C167.95 62.1101 171.58 68.5202 176.15 70.5602C178.835 71.7708 181.745 72.4045 184.69 72.4201C191.27 72.4935 197.85 72.5501 204.43 72.5901C206.11 72.5901 206.13 72.5901 206.12 70.8001C206.12 68.8001 205.98 68.5702 204.4 68.5702C199.46 68.5702 194.52 68.5701 189.58 68.4001C188.791 68.3501 187.999 68.3501 187.21 68.4001C186.276 68.4986 185.333 68.3423 184.481 67.9479C183.629 67.5535 182.899 66.9357 182.37 66.1602C181.49 65.0502 180.51 64.0501 179.72 62.8301C178.187 60.6657 176.538 58.586 174.78 56.6002C174.39 56.1402 174.06 55.6901 174.3 55.1201C174.54 54.5501 175.12 54.7102 175.58 54.7202C183.75 54.8502 191.93 55.0102 200.1 55.1302C207.52 55.2402 214.94 55.3001 222.36 55.3901C224.01 55.3901 224.49 55.9002 224.47 57.5402C224.41 62.0402 224.47 66.5402 224.32 71.0302C224.17 75.5202 224.27 79.9302 224.23 84.3802C224.23 86.2702 223.71 86.6401 221.84 86.8001C218.419 87.0517 214.985 87.0785 211.56 86.8802C205.06 86.6002 198.56 86.7901 192.06 86.6801C187.38 86.6101 182.69 86.5002 178 86.4502C176.897 86.3245 175.811 86.0797 174.76 85.7202C172.363 85.0311 170.042 84.1031 167.83 82.9502C165.732 81.9578 163.689 80.8529 161.71 79.6401C160.361 78.6574 159.097 77.5636 157.93 76.3701C154.58 73.5801 152.74 69.8801 151.35 65.8601C150.013 61.6828 149.899 57.2104 151.02 52.9702C151.388 51.0232 152.084 49.1531 153.08 47.4402C153.808 46.131 154.638 44.8805 155.56 43.7002C157.676 41.2023 160.253 39.1347 163.15 37.6101C165.01 36.5633 166.957 35.68 168.97 34.9702C170.55 34.4402 172.15 33.9702 173.75 33.5402C175.889 33.0642 178.086 32.9059 180.27 33.0702C183.42 33.1502 186.58 33.1401 189.73 33.1701L209.73 33.4301L223.48 33.6302C224.22 33.6302 225.22 33.5202 225.48 34.2902C225.74 35.0602 225.1 35.7802 224.48 36.2902C223.204 37.5427 222.076 38.9386 221.12 40.4502C220.423 41.3634 219.639 42.2072 218.78 42.9702C217.756 43.8598 216.896 44.9226 216.24 46.1101C215.8 47.1101 214.79 47.2602 213.79 47.2602H204.34L204.43 47.0601Z" fill="white"/>
<path d="M244.54 59.9699C249.29 59.9699 254.04 59.8399 258.79 59.9699C265.73 60.2099 272.67 59.9699 279.6 60.1799C283.16 60.2699 286.3 57.1799 286.92 54.1799C287.014 53.7478 287.015 53.3009 286.923 52.8683C286.832 52.4358 286.65 52.0274 286.39 51.6699C285.706 50.6124 284.773 49.7386 283.673 49.125C282.573 48.5114 281.339 48.1766 280.08 48.1499C270.35 47.8299 260.62 47.7599 250.88 47.6999C244.46 47.6999 238.05 47.5699 231.63 47.4999C231.295 47.5094 230.96 47.486 230.63 47.4299C230.1 47.2999 229.49 47.1999 229.32 46.5499C229.15 45.8999 229.66 45.7099 229.98 45.3799C230.51 44.8399 231.1 44.3799 231.6 43.7799C234.17 40.8799 236.6 37.8399 239.35 35.0999C239.732 34.6884 240.197 34.3631 240.714 34.1458C241.231 33.9285 241.789 33.8242 242.35 33.8399C250.85 33.9199 259.347 33.9933 267.84 34.0599C271.75 34.0599 275.67 34.1299 279.57 34.0599C282.767 34.1116 285.926 34.7523 288.89 35.9499C290.872 36.5623 292.794 37.3556 294.63 38.3199C296.57 39.4599 298.72 40.4499 300.18 42.1399C301.867 43.9779 303.191 46.1191 304.08 48.4499C305.414 52.1016 305.53 56.087 304.41 59.8099C303.963 61.2586 303.217 62.5973 302.22 63.7399C300.617 65.837 298.641 67.6203 296.39 68.9999C293.334 70.797 290.056 72.1887 286.64 73.1399C283.435 73.7754 280.162 74.0006 276.9 73.8099C267.36 73.7599 257.83 73.6299 248.29 73.5399C246.1 73.5399 246.03 73.5399 245.68 75.6799C245.422 77.0472 245.348 78.443 245.46 79.8299C245.595 81.7011 245.535 83.5813 245.28 85.4399C245.287 85.6591 245.246 85.877 245.159 86.0783C245.072 86.2796 244.942 86.4592 244.778 86.6044C244.613 86.7496 244.419 86.8567 244.209 86.9182C243.998 86.9796 243.777 86.9939 243.56 86.9599C239.1 86.8999 234.63 86.9599 230.17 86.9599C229.946 86.9937 229.717 86.9803 229.498 86.9205C229.279 86.8608 229.075 86.756 228.899 86.6129C228.723 86.4699 228.579 86.2916 228.476 86.0897C228.373 85.8877 228.313 85.6664 228.3 85.4399C228.125 84.3033 228.125 83.1466 228.3 82.0099C228.44 80.2299 228.3 78.4299 228.3 76.6399C228.37 71.3799 228.48 66.1199 228.53 60.8599C228.53 59.8599 229.13 59.8599 229.86 59.8599H244.54V59.9699Z" fill="white"/>
<path d="M247.26 142.91C247.16 139.72 247.46 136.55 247.39 133.36C247.32 130.17 247.39 127.15 247.58 124.05C247.66 122.86 248.15 122.53 249.29 122.54C255.917 122.6 262.544 122.627 269.17 122.62C272.096 122.547 275.018 122.863 277.86 123.56C279.808 124.015 281.608 124.958 283.09 126.3C283.658 126.813 284.113 127.439 284.426 128.137C284.74 128.834 284.905 129.59 284.912 130.355C284.918 131.12 284.766 131.878 284.465 132.581C284.163 133.284 283.719 133.917 283.16 134.44C281.44 136.15 279.62 137.61 277.06 137.78C276.8 137.78 276.6 137.91 276.57 138.2C276.559 138.358 276.588 138.516 276.654 138.66C276.721 138.803 276.822 138.927 276.95 139.02C278.51 140.44 280.2 141.71 281.85 143.02C282.91 143.86 283.94 144.74 284.94 145.66C285.215 146.132 285.36 146.669 285.36 147.215C285.36 147.762 285.215 148.298 284.94 148.77C284.806 148.889 284.642 148.969 284.466 149.002C284.29 149.035 284.109 149.021 283.94 148.96C281.66 148.44 279.36 148.96 277.07 148.81C275.52 148.757 274.045 148.13 272.93 147.05C270.36 144.61 267.93 142.05 265.2 139.74C263.25 138.11 261.15 138.13 258.93 138.28C258.748 138.29 258.569 138.337 258.404 138.417C258.24 138.498 258.093 138.61 257.973 138.748C257.853 138.886 257.761 139.047 257.704 139.22C257.647 139.394 257.625 139.578 257.64 139.76C257.57 141.76 257.46 143.76 257.49 145.71C257.529 146.127 257.481 146.548 257.348 146.944C257.214 147.341 257 147.706 256.717 148.015C256.435 148.324 256.09 148.57 255.707 148.738C255.323 148.906 254.909 148.992 254.49 148.99C252.6 149.04 250.73 148.6 248.83 148.93C248.26 149.03 247.95 148.43 247.73 147.86C247.276 146.252 247.116 144.575 247.26 142.91ZM265.34 132.81H270.71C271.403 132.832 272.09 132.68 272.71 132.37C273.186 132.183 273.581 131.833 273.824 131.383C274.068 130.933 274.144 130.411 274.04 129.91C273.83 128.68 272.89 128.56 272.04 128.52C267.71 128.34 263.37 128.63 259.04 128.22C258.58 128.22 258.04 128.22 257.92 128.72C257.536 129.735 257.515 130.852 257.86 131.88C258.16 132.74 259.15 132.82 260.01 132.82C261.76 132.81 263.55 132.81 265.34 132.81Z" fill="white"/>
<path d="M317.34 142.89H327.76C329.57 142.89 329.92 143.25 329.95 145.05C329.95 146.05 330.27 147.05 329.77 148.05C329.664 148.39 329.449 148.685 329.158 148.889C328.867 149.094 328.516 149.196 328.16 149.18C324.69 149.18 321.21 149.33 317.75 149.12C312.13 148.76 306.51 149.05 300.89 148.96C299.674 149.052 298.451 148.988 297.25 148.77C296.583 148.643 295.983 148.284 295.555 147.757C295.126 147.23 294.898 146.569 294.91 145.89C294.8 138.51 295.05 131.15 295.15 123.78C295.15 122.54 295.94 122.5 296.84 122.5H318.74H328.2C329.74 122.5 330.2 122.94 330.4 124.5C330.493 125.414 330.456 126.336 330.29 127.24C330.12 128.18 329.59 128.65 328.74 128.47C326.59 127.99 324.46 128.58 322.32 128.47C318.87 128.36 315.42 128.33 311.97 128.23C310.19 128.23 308.42 128.73 306.63 128.23C306.02 128.07 305.55 128.39 305.48 129.11C305.48 129.5 305.31 129.89 305.28 130.28C305.14 131.97 305.57 132.47 307.28 132.48C311.75 132.48 316.22 132.48 320.69 132.48C322.12 132.48 323.55 132.59 324.98 132.64C325.263 132.611 325.546 132.693 325.769 132.868C325.993 133.044 326.14 133.299 326.18 133.58C326.5 134.725 326.572 135.925 326.39 137.1C326.317 137.51 326.095 137.879 325.767 138.136C325.438 138.393 325.026 138.519 324.61 138.49C320.797 138.72 316.973 138.72 313.16 138.49C311 138.41 308.83 138.59 306.67 138.49C305.67 138.43 305.32 138.91 305.29 139.85C305.19 142.68 305.17 142.68 308.03 142.69L317.34 142.89Z" fill="white"/>
<path d="M93.8998 14.9601C100.235 15.208 106.467 16.6464 112.27 19.2001C119.07 22.2001 124.44 26.9301 129.39 32.2901C132.227 35.5004 134.681 39.031 136.7 42.8101C138.31 45.8772 139.456 49.1664 140.1 52.5701C140.841 55.8558 141.273 59.2038 141.39 62.5701C141.303 63.5951 140.953 64.5805 140.375 65.4316C139.797 66.2827 139.01 66.9708 138.09 67.4301C137.18 67.6402 136.231 67.6006 135.342 67.3154C134.453 67.0302 133.657 66.5101 133.04 65.8101C132.758 65.4238 132.558 64.9845 132.452 64.5187C132.345 64.0529 132.334 63.5702 132.42 63.1001C132.435 58.3064 131.532 53.5542 129.76 49.1001C128.885 46.4637 127.639 43.9652 126.06 41.6801C124.684 39.5185 123.086 37.5075 121.29 35.6801C118.436 32.9728 115.239 30.6529 111.78 28.7801C108.555 27.0272 105.092 25.7538 101.5 25.0001C98.3298 24.3401 95.1198 24.1001 91.9398 23.6001C91.2871 23.5145 90.6754 23.2339 90.1847 22.795C89.694 22.3561 89.3473 21.7793 89.1898 21.1401C87.9798 17.1801 90.9398 14.4601 93.8998 14.9601Z" fill="white"/>
<path d="M238.25 135.41C238.25 136.48 238.25 137.56 238.25 138.63C238.258 139.886 237.933 141.122 237.31 142.212C236.687 143.303 235.786 144.209 234.7 144.84C232.938 146.052 231.038 147.049 229.04 147.81C227.678 148.355 226.242 148.692 224.78 148.81C222.73 148.87 220.66 149 218.63 148.93C215.41 148.948 212.206 148.472 209.13 147.52C206.555 146.662 204.176 145.302 202.13 143.52C201.382 142.886 200.791 142.088 200.404 141.187C200.017 140.287 199.844 139.308 199.9 138.33C200 135.82 199.79 133.33 200.1 130.81C200.46 127.9 202.33 126.24 204.58 124.87C206.906 123.441 209.562 122.638 212.29 122.54C217.79 122.34 223.29 122.1 228.73 123.36C231.207 123.981 233.541 125.078 235.6 126.59C236.444 127.133 237.136 127.883 237.609 128.768C238.081 129.654 238.319 130.646 238.3 131.65C238.3 132.92 238.3 134.2 238.3 135.48L238.25 135.41ZM227.55 135.76C227.723 134.001 227.522 132.225 226.96 130.55C226.806 130.052 226.504 129.613 226.095 129.29C225.687 128.967 225.19 128.775 224.67 128.74C223.44 128.67 222.24 128.38 221 128.41C219.331 128.476 217.661 128.422 216 128.25C213.65 127.96 210.57 129.75 210.36 132.46C210.26 133.81 210.3 135.16 210.26 136.51C210.189 137.856 210.606 139.183 211.434 140.247C212.263 141.31 213.447 142.039 214.77 142.3C217.15 142.827 219.604 142.932 222.02 142.61C223.187 142.565 224.316 142.181 225.268 141.505C226.22 140.828 226.954 139.888 227.38 138.8C227.605 137.82 227.662 136.809 227.55 135.81V135.76Z" fill="white"/>
<path d="M156.26 142.54C156.18 137.77 155.92 132.99 156.05 128.21C156.05 126.62 156.17 125.03 156.24 123.44C156.224 123.25 156.25 123.059 156.317 122.881C156.384 122.703 156.49 122.542 156.627 122.409C156.764 122.277 156.929 122.177 157.109 122.117C157.29 122.056 157.481 122.037 157.67 122.06C160.1 121.96 162.53 122.06 164.95 122.13C166.09 122.13 166.56 122.73 166.58 124.04C166.58 126.59 166.58 129.14 166.58 131.69C166.58 132.15 166.44 132.69 166.95 132.99C167.46 133.29 167.95 132.92 168.37 132.61C172.74 129.22 177.6 126.52 181.82 122.92C182.283 122.53 182.875 122.326 183.48 122.35H191.48H191.72C192.44 122.5 193.41 122.26 193.72 123.09C194.03 123.92 193.14 124.36 192.59 124.84C190.35 126.84 187.71 128.21 185.26 129.89C184.077 130.553 183.096 131.524 182.42 132.7C182.319 132.842 182.248 133.004 182.211 133.175C182.174 133.346 182.171 133.522 182.204 133.694C182.237 133.866 182.304 134.029 182.401 134.175C182.498 134.32 182.624 134.444 182.77 134.54C186.69 138.09 190.68 141.54 194.86 144.82C195.48 145.3 196.39 145.82 196.16 146.65C195.999 147.054 195.725 147.403 195.37 147.655C195.015 147.907 194.595 148.051 194.16 148.07C192.621 148.265 191.064 148.285 189.52 148.13C189.289 148.068 189.05 148.035 188.81 148.03C186.19 148.53 184.46 146.92 182.74 145.41C180.03 143.03 177.04 140.95 174.63 138.22C174.412 138.005 174.117 137.884 173.81 137.884C173.504 137.884 173.209 138.005 172.99 138.22C171.82 139.09 170.34 139.51 169.36 140.66C169.166 140.854 168.93 141.001 168.67 141.09C166.75 141.88 166.52 142.2 166.58 144.29C166.688 145.242 166.465 146.202 165.95 147.01C165.665 147.545 165.208 147.968 164.654 148.213C164.099 148.458 163.478 148.51 162.89 148.36C160.987 148.145 159.064 148.145 157.16 148.36C156.41 148.41 156.24 148.26 156.24 147.6C156.26 145.89 156.26 144.22 156.26 142.54Z" fill="white"/>
<path d="M373.53 147.94H373.29C370.53 148.36 368.29 147.64 366.79 145.11C366.553 144.762 366.226 144.485 365.843 144.309C365.461 144.133 365.038 144.064 364.62 144.11C361.76 144.11 358.89 144.11 356.02 143.98C353.65 143.88 351.27 144.2 348.88 143.98C348.216 143.983 347.566 144.171 347.003 144.525C346.441 144.879 345.99 145.383 345.7 145.98C344.47 147.98 342.62 148.34 340.56 148.04C339.488 148.028 338.417 148.071 337.35 148.17C336.993 148.15 336.636 148.15 336.28 148.17C335.855 148.19 335.434 148.083 335.069 147.865C334.704 147.646 334.412 147.324 334.23 146.94C333.89 146.3 334.52 145.77 334.84 145.25C336.17 143.05 338.13 141.39 339.72 139.41C342.32 136.19 345.22 133.19 347.52 129.77C349.06 127.5 351.28 125.9 352.71 123.59C353.22 122.75 354.12 122.69 355.06 122.49C359.19 121.63 361.54 124.03 363.59 126.94C364.39 128.08 365.24 129.17 366.07 130.28C369.66 135.04 373.64 139.49 377.07 144.36C377.547 144.947 377.928 145.605 378.2 146.31C378.51 147.31 378.2 147.86 377.11 147.91C376.02 147.96 374.72 147.91 373.52 147.91L373.53 147.94ZM357.17 138.72C357.85 138.72 358.52 138.72 359.17 138.72C359.463 138.784 359.77 138.75 360.042 138.623C360.315 138.497 360.538 138.285 360.68 138.02C360.847 137.723 360.923 137.384 360.898 137.044C360.873 136.704 360.749 136.379 360.54 136.11C359.6 134.84 358.64 133.58 357.71 132.3C357.27 131.71 356.92 131.6 356.26 132.12C354.6 133.43 353.82 135.4 352.5 136.96C351.93 137.64 352.42 138.33 353.5 138.49C354.714 138.671 355.942 138.748 357.17 138.72Z" fill="white"/>
<path d="M124.19 62.5499C124.74 66.5499 120.19 68.5499 117.63 66.9599C116.969 66.5472 116.434 65.9622 116.082 65.2679C115.729 64.5737 115.573 63.7964 115.63 63.0199C115.452 61.3634 115.168 59.72 114.78 58.0999C114.33 55.9315 113.493 53.8618 112.31 51.9899C111.121 49.7787 109.526 47.8111 107.61 46.1899C105.002 44.1673 102.051 42.6295 98.8996 41.6499C96.9996 40.9499 94.8996 41.0399 92.8996 40.6499C89.2196 40.0199 88.5896 37.5699 89.6496 34.5999C90.4896 32.2599 91.9596 31.5999 95.0896 31.9799C98.9875 32.3786 102.798 33.3911 106.38 34.9799C109.557 36.6369 112.448 38.7945 114.94 41.3699C118.53 44.7219 121.243 48.9044 122.84 53.5499C123.753 56.4618 124.209 59.4981 124.19 62.5499Z" fill="white"/>
<path d="M166.09 113.05C163.86 112.91 160.46 113.27 157.09 112.86C155.7 112.69 155.4 112.5 155.36 111.03C155.32 109.56 155.31 107.84 155.31 106.24C155.31 103.33 155.31 100.42 155.31 97.51C155.29 97.2337 155.29 96.9563 155.31 96.68C155.59 94.45 156.03 94.08 158.25 94.12C163.36 94.22 168.47 94.26 173.57 94.43C176.494 94.3898 179.391 94.987 182.06 96.18C184.49 97.39 186.81 98.97 187.41 101.9C188.12 105.41 186.66 108.18 183.99 110.38C181.49 112.45 178.45 112.91 175.36 113.03C172.67 113.13 169.95 113.05 166.09 113.05ZM168.09 97.56C166.42 97.56 164.74 97.61 163.09 97.56C162.01 97.56 161.59 97.91 161.6 99C161.6 101.95 161.69 104.9 161.6 107.84C161.6 109.04 162.01 109.53 163.14 109.55C163.45 109.55 163.77 109.62 164.14 109.62H173.35C175.349 109.6 177.313 109.092 179.07 108.14C179.894 107.592 180.556 106.834 180.989 105.945C181.421 105.055 181.608 104.066 181.53 103.08C180.94 99.48 179.53 98.94 176.47 98.08C173.71 97.28 170.87 97.65 168.09 97.56Z" fill="white"/>
<path d="M359.64 96.7201C363.1 96.7201 366.59 96.5101 370.02 97.2201C371.85 97.5901 373.67 98.0301 375.02 99.5201C375.621 100.11 376.048 100.855 376.253 101.672C376.457 102.489 376.432 103.346 376.18 104.15C375.65 105.86 374.01 106.15 372.59 106.54C372.01 106.71 371.35 106.68 371.13 107.35C370.91 108.02 371.53 108.35 371.91 108.71C373.304 110.022 374.776 111.248 376.32 112.38C376.731 112.626 377.074 112.969 377.32 113.38C377.85 114.51 377.39 114.98 376.2 115.12C373.33 115.46 371.58 113.54 369.78 111.97C367.712 110.234 365.549 108.615 363.3 107.12C363.046 106.929 362.746 106.809 362.43 106.77C360.59 106.77 358.76 106.77 356.92 106.77C356.08 106.77 355.92 107.42 355.92 108.13C355.86 109.92 355.98 111.71 355.77 113.5C355.68 114.27 355.46 114.64 354.66 114.74C354.151 114.82 353.636 114.86 353.12 114.86C352.81 114.874 352.5 114.822 352.212 114.706C351.924 114.591 351.664 114.415 351.45 114.19C351.236 113.965 351.072 113.697 350.971 113.404C350.869 113.111 350.831 112.799 350.86 112.49C350.86 109.23 350.86 105.97 351.14 102.72C351.28 101.23 350.97 99.7201 351.29 98.2301C351.53 97.1201 351.9 96.6501 353.06 96.6801C355.25 96.8101 357.44 96.7201 359.64 96.7201ZM361.64 104.61C363.984 104.829 366.349 104.663 368.64 104.12C369.93 103.72 370.83 102.79 370.77 101.86C370.699 101.28 370.423 100.745 369.992 100.351C369.561 99.9569 369.004 99.7295 368.42 99.7101C364.96 99.2701 361.42 99.4801 357.97 99.0401C356.86 98.9001 356.33 99.5901 356.31 100.73C356.31 101.48 356.31 102.24 356.31 102.99C356.2 104.18 356.67 104.68 357.87 104.62C359.07 104.56 360.37 104.61 361.65 104.61H361.64Z" fill="white"/>
<path d="M204.29 103.72C204.36 101.86 204.17 99.23 204.48 96.6C204.475 96.2238 204.615 95.8602 204.873 95.5859C205.13 95.3116 205.484 95.1481 205.86 95.13C207.25 95.0266 208.646 95.0533 210.03 95.21C213.78 95.28 217.53 95.09 221.26 95.48C223.328 95.6237 225.357 96.1173 227.26 96.94C227.772 97.1778 228.224 97.5264 228.584 97.9607C228.944 98.3949 229.203 98.9039 229.341 99.4506C229.48 99.9973 229.496 100.568 229.387 101.121C229.277 101.675 229.046 102.197 228.71 102.65C228.227 103.304 227.609 103.847 226.898 104.242C226.188 104.637 225.401 104.875 224.59 104.94C224.25 105 223.79 104.88 223.59 105.28C223.39 105.68 223.84 106.02 224.12 106.28C225.12 107.1 226.19 107.9 227.26 108.66C228.424 109.627 229.514 110.68 230.52 111.81C231.17 112.44 230.78 113.01 230.09 113.11C228.65 113.32 227.19 113.61 225.82 112.71C224.22 111.66 222.99 110.15 221.35 109.15C219.997 108.246 218.726 107.226 217.55 106.1C216.746 105.572 215.789 105.325 214.83 105.4C213.52 105.27 212.2 105.4 210.88 105.34C210.673 105.307 210.462 105.319 210.26 105.375C210.059 105.431 209.871 105.529 209.711 105.664C209.551 105.799 209.421 105.966 209.331 106.155C209.241 106.344 209.193 106.551 209.19 106.76C209.07 107.986 209.03 109.219 209.07 110.45C209.077 111.049 208.965 111.644 208.74 112.2C208.623 112.601 208.356 112.941 207.995 113.149C207.634 113.358 207.206 113.419 206.8 113.32C204.29 112.95 204.27 113.01 204.24 110.48C204.27 108.46 204.29 106.47 204.29 103.72ZM216.15 103.02C218.126 103.259 220.127 103.161 222.07 102.73C222.551 102.604 222.994 102.362 223.36 102.026C223.726 101.689 224.004 101.268 224.17 100.8C224.58 99.95 223.9 99.25 223.27 98.65C222.183 97.7594 220.803 97.3065 219.4 97.38C216.63 97.2 213.84 97.43 211.06 97.21C210.832 97.1918 210.602 97.2217 210.385 97.2978C210.169 97.3739 209.971 97.4946 209.804 97.6519C209.638 97.8093 209.506 97.9999 209.417 98.2115C209.329 98.423 209.285 98.6507 209.29 98.88C209.29 99.8 209.29 100.71 209.29 101.63C209.262 101.818 209.278 102.01 209.337 102.191C209.396 102.372 209.497 102.537 209.631 102.672C209.765 102.807 209.929 102.909 210.109 102.969C210.29 103.03 210.482 103.047 210.67 103.02H216.15Z" fill="white"/>
<path d="M325.82 106.56C323.63 106.56 321.43 106.56 319.24 106.56C319.034 106.524 318.823 106.535 318.623 106.591C318.422 106.647 318.236 106.747 318.079 106.884C317.922 107.021 317.797 107.191 317.714 107.383C317.631 107.574 317.592 107.782 317.6 107.99C317.15 111.33 317.27 111.55 320.6 111.6C324.23 111.66 327.86 111.6 331.49 111.66C331.92 111.66 332.36 111.66 332.8 111.66C332.98 111.652 333.16 111.685 333.326 111.754C333.492 111.824 333.641 111.929 333.763 112.063C333.884 112.196 333.974 112.355 334.027 112.527C334.08 112.7 334.095 112.881 334.07 113.06C334.07 113.96 333.53 114.25 332.78 114.28C330.78 114.34 328.78 114.14 326.78 114.13C322.69 114.13 318.6 114.22 314.5 114.34C313.3 114.34 312.65 113.96 312.5 112.75C312.338 111.045 312.311 109.33 312.42 107.62C312.42 104.49 312.52 101.35 312.58 98.2101C312.58 96.3701 312.99 95.9701 314.85 96.0601C319.1 96.2501 323.35 96.1701 327.6 96.2001C329.4 96.2001 331.19 96.2001 332.99 96.2001C334.22 96.2001 334.58 96.7101 334.28 97.8601C334.273 97.9484 334.246 98.034 334.202 98.1109C334.158 98.1877 334.097 98.2538 334.025 98.3045C333.952 98.3552 333.869 98.3891 333.782 98.4039C333.695 98.4187 333.605 98.414 333.52 98.3901C328.79 97.9901 324.04 98.3301 319.3 98.2301C317.91 98.2301 317.58 98.6101 317.52 100.03C317.52 100.51 317.52 101.03 317.52 101.47C317.44 103.11 317.52 103.19 319.19 103.2C323.02 103.2 326.85 103.2 330.67 103.27C331.188 103.275 331.706 103.315 332.22 103.39C333.69 103.59 334.15 104.39 333.66 105.81C333.45 106.43 333.01 106.51 332.44 106.5C330.25 106.5 328.05 106.5 325.86 106.5L325.82 106.56Z" fill="white"/>
<path d="M268.72 95.3898C271.18 94.9598 272.38 96.9498 273.52 98.7898C274.66 100.63 276.05 102.24 277.21 104.04C278.37 105.84 279.91 107.73 281.21 109.6C281.67 110.26 282.26 110.27 282.55 109.72C283.73 107.51 285.91 106.11 287.07 103.91C287.18 103.7 287.22 103.41 287.39 103.28C289.67 101.54 290.8 98.8398 292.79 96.8198C294.09 95.5098 295.49 95.6798 296.97 95.8198C297.57 95.8798 297.81 96.3298 297.71 96.9598C297.455 97.9263 296.936 98.8025 296.21 99.4898C293.65 102.61 291.01 105.67 288.57 108.9C287.63 110.13 286.67 111.35 285.57 112.49C284.789 113.174 283.838 113.633 282.816 113.82C281.795 114.006 280.743 113.913 279.77 113.55C278.55 112.9 278.06 111.48 277.02 110.61C275.15 109.04 273.94 106.89 272.48 105.01C271.14 103.29 269.48 101.75 268.59 99.6398C268.18 98.6398 267.19 98.0198 266.78 96.9898C266.21 95.5698 266.28 95.4198 267.78 95.3898H268.72Z" fill="white"/>
<path d="M246.88 103.15C247.02 100.85 246.7 98.5299 247.14 96.2399C247.38 94.9999 247.87 94.7699 249.46 94.9199C251.05 95.0699 251.28 95.3399 251.28 96.6999C251.28 101.32 251.253 105.94 251.2 110.56C251.177 111.037 251.121 111.511 251.03 111.98C251.015 112.127 250.971 112.27 250.901 112.401C250.83 112.531 250.734 112.646 250.619 112.739C250.504 112.832 250.371 112.901 250.229 112.942C250.086 112.984 249.937 112.997 249.79 112.98C247.36 113.07 246.61 112.41 246.79 109.98C246.94 107.69 246.83 105.42 246.88 103.15Z" fill="white"/>
</svg>
