<svg width="572" height="170" viewBox="0 0 572 170" fill="none" xmlns="http://www.w3.org/2000/svg">
<path d="M85.0005 0C70.7674 0.000561768 56.5979 4.3518 29.9706 12.5286L26.5439 13.5808V59.8879C26.5441 60.6111 26.5554 61.3544 26.5787 62.1153C28.7196 59.4759 31.8079 57.5205 34.1358 56.4128V19.227C59.8657 11.3329 72.4651 7.6295 85.0005 7.62899C97.536 7.6295 110.135 11.3329 135.865 19.227V56.4128C138.193 57.5205 141.281 59.4759 143.422 62.1153C143.445 61.3544 143.457 60.6111 143.457 59.8879V13.5808L140.031 12.5286C113.403 4.3518 99.2336 0.000561768 85.0005 0Z" fill="white"/>
<path fill-rule="evenodd" clip-rule="evenodd" d="M101.78 32.6898C101.78 41.717 94.4566 49.0348 85.4231 49.0348C76.3897 49.0348 69.0664 41.717 69.0664 32.6898C69.0664 23.6626 76.3897 16.3447 85.4231 16.3447C94.4566 16.3447 101.78 23.6626 101.78 32.6898ZM92.7838 32.6898C92.7838 36.7519 89.4882 40.0452 85.4231 40.0452C81.3581 40.0452 78.0625 36.7519 78.0625 32.6898C78.0625 28.6276 81.3581 25.3345 85.4231 25.3345C89.4882 25.3345 92.7838 28.6276 92.7838 32.6898Z" fill="white"/>
<path fill-rule="evenodd" clip-rule="evenodd" d="M64.1591 41.6795C64.1591 47.9984 59.0329 53.1212 52.7096 53.1212C46.3859 53.1212 41.2598 47.9984 41.2598 41.6795C41.2598 35.3606 46.3859 30.238 52.7096 30.238C59.0329 30.238 64.1591 35.3606 64.1591 41.6795ZM57.6165 41.6795C57.6165 44.3876 55.4197 46.583 52.7096 46.583C49.9995 46.583 47.8024 44.3876 47.8024 41.6795C47.8024 38.9714 49.9995 36.7761 52.7096 36.7761C55.4197 36.7761 57.6165 38.9714 57.6165 41.6795Z" fill="white"/>
<path fill-rule="evenodd" clip-rule="evenodd" d="M118.136 53.1212C124.46 53.1212 129.586 47.9984 129.586 41.6795C129.586 35.3606 124.46 30.238 118.136 30.238C111.813 30.238 106.687 35.3606 106.687 41.6795C106.687 47.9984 111.813 53.1212 118.136 53.1212ZM118.136 46.583C120.847 46.583 123.044 44.3876 123.044 41.6795C123.044 38.9714 120.847 36.7761 118.136 36.7761C115.426 36.7761 113.229 38.9714 113.229 41.6795C113.229 44.3876 115.426 46.583 118.136 46.583Z" fill="white"/>
<path d="M1.77295 76.2026C14.499 104.512 23.9842 120.418 56.102 137.789L56.1126 137.757C20.3912 115.642 -1.33925 79.5591 22.0819 46.5835C19.8337 97.253 39.4244 127.492 85 147.514C130.576 127.492 150.166 97.253 147.918 46.5835C171.339 79.5591 149.609 115.642 113.887 137.757L113.898 137.789C146.016 120.418 155.501 104.512 168.227 76.2026C179.441 114.663 135.061 136.658 102.598 146.83C127.456 144.395 146.448 133.856 165.137 113.532C163.895 146.098 123.275 151.238 96.0405 150.57C114.136 154.158 131.399 151.389 151.039 142.628C139.923 165.808 111.759 161.443 89.6019 153.124C101.647 159.493 115.151 162.316 131.507 162.381C119.213 172.715 105.201 169.784 92.5511 162.068C95.5543 164.805 99.0114 167.348 102.965 169.784C96.5267 170.775 91.2655 168.254 87.398 164.31C86.804 166.938 85.9724 169.05 85.0003 169.331C84.0283 169.05 83.196 166.938 82.602 164.31C78.7345 168.254 73.4733 170.775 67.0347 169.784C70.9886 167.348 74.4457 164.805 77.4489 162.068C64.7986 169.784 50.7868 172.715 38.4928 162.381C54.8488 162.316 68.3526 159.493 80.3981 153.124C58.241 161.443 30.0772 165.808 18.9607 142.628C38.6009 151.389 55.8644 154.158 73.9595 150.57C46.7248 151.238 6.105 146.098 4.86264 113.532C23.5521 133.856 42.5439 144.395 67.4019 146.83C34.9387 136.658 -9.44069 114.663 1.77295 76.2026Z" fill="white"/>
<path d="M84.9999 138.942L92.3365 152.812L84.9999 166.682L77.6631 152.812L84.9999 138.942Z" fill="white"/>
<path d="M116.412 71.929V122.788C113.653 125.277 110.64 127.676 107.35 129.952V71.929C107.35 67.8649 104.03 64.5707 99.9348 64.5707H70.2759C66.1809 64.5707 62.8612 67.8649 62.8612 71.929V129.696C59.5724 127.405 56.5583 124.991 53.7988 122.489V71.929C53.7988 62.8979 61.1758 55.5767 70.2759 55.5767H99.9348C109.035 55.5767 116.412 62.8979 116.412 71.929Z" fill="white"/>
<path d="M34.026 96.2242C29.8568 87.5559 27.5952 79.0943 26.5439 71.9223C28.6458 65.2916 34.8893 60.4827 42.2646 60.4827H50.294C48.8538 62.9531 47.8654 65.7156 47.4414 68.6587H42.2646C37.7147 68.6587 34.026 72.3194 34.026 76.835V96.2242Z" fill="white"/>
<path d="M135.975 96.2242C140.144 87.5559 142.406 79.0943 143.457 71.9223C141.355 65.2916 135.112 60.4827 127.736 60.4827H119.707C121.147 62.9531 122.135 65.7156 122.56 68.6587H127.736C132.286 68.6587 135.975 72.3194 135.975 76.835V96.2242Z" fill="white"/>
<path opacity="0.9" d="M222.789 23.9631C221.347 23.9631 220.048 23.6503 218.892 23.0247C217.736 22.3855 216.825 21.5083 216.159 20.3931C215.506 19.2779 215.18 18.0335 215.18 16.6599C215.18 15.2863 215.506 14.0419 216.159 12.9267C216.825 11.8115 217.736 10.9411 218.892 10.3155C220.048 9.67629 221.347 9.35669 222.789 9.35669C224.217 9.35669 225.509 9.67629 226.665 10.3155C227.821 10.9411 228.725 11.8115 229.378 12.9267C230.031 14.0283 230.357 15.2727 230.357 16.6599C230.357 18.0471 230.031 19.2983 229.378 20.4135C228.725 21.5151 227.821 22.3855 226.665 23.0247C225.509 23.6503 224.217 23.9631 222.789 23.9631ZM222.789 22.1475C223.836 22.1475 224.774 21.9095 225.604 21.4335C226.447 20.9575 227.107 20.3047 227.583 19.4751C228.072 18.6319 228.317 17.6935 228.317 16.6599C228.317 15.6263 228.072 14.6947 227.583 13.8651C227.107 13.0219 226.447 12.3623 225.604 11.8863C224.774 11.4103 223.836 11.1723 222.789 11.1723C221.742 11.1723 220.79 11.4103 219.933 11.8863C219.09 12.3623 218.423 13.0219 217.934 13.8651C217.458 14.6947 217.22 15.6263 217.22 16.6599C217.22 17.6935 217.458 18.6319 217.934 19.4751C218.423 20.3047 219.09 20.9575 219.933 21.4335C220.79 21.9095 221.742 22.1475 222.789 22.1475ZM233.277 11.7027C233.549 11.7979 233.76 11.9543 233.91 12.1719C234.059 12.3895 234.134 12.6547 234.134 12.9675C234.134 13.3755 234.005 13.7087 233.746 13.9671C233.488 14.2255 233.168 14.3547 232.788 14.3547C232.393 14.3547 232.067 14.2255 231.808 13.9671C231.55 13.6951 231.421 13.3619 231.421 12.9675C231.421 12.7771 231.441 12.5867 231.482 12.3963C231.536 12.1923 231.638 11.8999 231.788 11.5191L232.747 8.66309H234.032L233.277 11.7027ZM247.303 22.0251V23.7999H235.369V22.4127L244.345 11.2947H235.512V9.51989H247.038V10.9071L238.103 22.0251H247.303ZM259.038 16.3947C259.868 16.6259 260.52 17.0475 260.996 17.6595C261.472 18.2579 261.71 19.0195 261.71 19.9443C261.71 21.1819 261.241 22.1339 260.303 22.8003C259.378 23.4667 258.025 23.7999 256.243 23.7999H249.43V9.51989H255.835C257.467 9.51989 258.725 9.84629 259.609 10.4991C260.507 11.1519 260.956 12.0563 260.956 13.2123C260.956 13.9603 260.779 14.6063 260.425 15.1503C260.085 15.6943 259.623 16.1091 259.038 16.3947ZM251.47 11.1723V15.7419H255.652C256.699 15.7419 257.501 15.5515 258.059 15.1707C258.63 14.7763 258.916 14.2051 258.916 13.4571C258.916 12.7091 258.63 12.1447 258.059 11.7639C257.501 11.3695 256.699 11.1723 255.652 11.1723H251.47ZM256.162 22.1475C257.318 22.1475 258.188 21.9571 258.773 21.5763C259.358 21.1955 259.65 20.5971 259.65 19.7811C259.65 18.1899 258.487 17.3943 256.162 17.3943H251.47V22.1475H256.162ZM274.62 22.0251V23.7999H264.257V9.51989H274.335V11.2947H266.297V15.6807H273.457V17.4147H266.297V22.0251H274.62ZM281.962 17.4555L279.351 20.1075V23.7999H277.311V9.51989H279.351V17.4963L287.103 9.51989H289.429L283.329 15.9459L289.816 23.7999H287.43L281.962 17.4555ZM291.362 9.51989H293.402V23.7999H291.362V9.51989ZM301.227 23.9631C300.152 23.9631 299.112 23.7999 298.106 23.4735C297.113 23.1335 296.331 22.6983 295.76 22.1679L296.514 20.5767C297.058 21.0663 297.752 21.4675 298.595 21.7803C299.452 22.0795 300.329 22.2291 301.227 22.2291C302.41 22.2291 303.294 22.0319 303.879 21.6375C304.464 21.2295 304.756 20.6923 304.756 20.0259C304.756 19.5363 304.593 19.1419 304.266 18.8427C303.954 18.5299 303.559 18.2919 303.083 18.1287C302.621 17.9655 301.961 17.7819 301.104 17.5779C300.03 17.3195 299.16 17.0611 298.493 16.8027C297.84 16.5443 297.276 16.1499 296.8 15.6195C296.338 15.0755 296.106 14.3479 296.106 13.4367C296.106 12.6751 296.304 11.9883 296.698 11.3763C297.106 10.7643 297.718 10.2747 298.534 9.90749C299.35 9.54029 300.363 9.35669 301.574 9.35669C302.417 9.35669 303.246 9.46549 304.062 9.68309C304.878 9.90069 305.579 10.2135 306.164 10.6215L305.49 12.2535C304.892 11.8727 304.253 11.5871 303.573 11.3967C302.893 11.1927 302.226 11.0907 301.574 11.0907C300.418 11.0907 299.547 11.3015 298.962 11.7231C298.391 12.1447 298.106 12.6887 298.106 13.3551C298.106 13.8447 298.269 14.2459 298.595 14.5587C298.922 14.8579 299.323 15.0959 299.799 15.2727C300.289 15.4359 300.948 15.6127 301.778 15.8031C302.852 16.0615 303.716 16.3199 304.368 16.5783C305.021 16.8367 305.579 17.2311 306.041 17.7615C306.517 18.2919 306.755 19.0059 306.755 19.9035C306.755 20.6515 306.551 21.3383 306.143 21.9639C305.735 22.5759 305.117 23.0655 304.287 23.4327C303.457 23.7863 302.437 23.9631 301.227 23.9631ZM311.76 11.2947H306.864V9.51989H318.675V11.2947H313.779V23.7999H311.76V11.2947ZM326.532 23.9631C325.091 23.9631 323.792 23.6503 322.636 23.0247C321.48 22.3855 320.569 21.5083 319.902 20.3931C319.25 19.2779 318.923 18.0335 318.923 16.6599C318.923 15.2863 319.25 14.0419 319.902 12.9267C320.569 11.8115 321.48 10.9411 322.636 10.3155C323.792 9.67629 325.091 9.35669 326.532 9.35669C327.96 9.35669 329.252 9.67629 330.408 10.3155C331.564 10.9411 332.469 11.8115 333.122 12.9267C333.774 14.0283 334.101 15.2727 334.101 16.6599C334.101 18.0471 333.774 19.2983 333.122 20.4135C332.469 21.5151 331.564 22.3855 330.408 23.0247C329.252 23.6503 327.96 23.9631 326.532 23.9631ZM326.532 22.1475C327.58 22.1475 328.518 21.9095 329.348 21.4335C330.191 20.9575 330.85 20.3047 331.326 19.4751C331.816 18.6319 332.061 17.6935 332.061 16.6599C332.061 15.6263 331.816 14.6947 331.326 13.8651C330.85 13.0219 330.191 12.3623 329.348 11.8863C328.518 11.4103 327.58 11.1723 326.532 11.1723C325.485 11.1723 324.533 11.4103 323.676 11.8863C322.833 12.3623 322.167 13.0219 321.677 13.8651C321.201 14.6947 320.963 15.6263 320.963 16.6599C320.963 17.6935 321.201 18.6319 321.677 19.4751C322.167 20.3047 322.833 20.9575 323.676 21.4335C324.533 21.9095 325.485 22.1475 326.532 22.1475ZM348.888 9.51989V23.7999H347.215L338.647 13.1511V23.7999H336.607V9.51989H338.28L346.848 20.1687V9.51989H348.888ZM366.962 23.7999L363.882 19.4139C363.501 19.4411 363.202 19.4547 362.985 19.4547H359.455V23.7999H357.415V9.51989H362.985C364.834 9.51989 366.289 9.96189 367.35 10.8459C368.411 11.7299 368.941 12.9471 368.941 14.4975C368.941 15.5991 368.669 16.5375 368.125 17.3127C367.581 18.0879 366.806 18.6523 365.8 19.0059L369.186 23.7999H366.962ZM362.923 17.7207C364.215 17.7207 365.201 17.4419 365.881 16.8843C366.561 16.3267 366.901 15.5311 366.901 14.4975C366.901 13.4639 366.561 12.6751 365.881 12.1311C365.201 11.5735 364.215 11.2947 362.923 11.2947H359.455V17.7207H362.923ZM381.99 22.0251V23.7999H371.627V9.51989H381.705V11.2947H373.667V15.6807H380.828V17.4147H373.667V22.0251H381.99ZM388.841 23.9631C387.767 23.9631 386.727 23.7999 385.72 23.4735C384.727 23.1335 383.946 22.6983 383.374 22.1679L384.129 20.5767C384.673 21.0663 385.367 21.4675 386.21 21.7803C387.067 22.0795 387.944 22.2291 388.841 22.2291C390.025 22.2291 390.909 22.0319 391.493 21.6375C392.078 21.2295 392.371 20.6923 392.371 20.0259C392.371 19.5363 392.208 19.1419 391.881 18.8427C391.568 18.5299 391.174 18.2919 390.698 18.1287C390.236 17.9655 389.576 17.7819 388.719 17.5779C387.645 17.3195 386.774 17.0611 386.108 16.8027C385.455 16.5443 384.891 16.1499 384.415 15.6195C383.952 15.0755 383.721 14.3479 383.721 13.4367C383.721 12.6751 383.918 11.9883 384.313 11.3763C384.721 10.7643 385.333 10.2747 386.149 9.90749C386.965 9.54029 387.978 9.35669 389.188 9.35669C390.032 9.35669 390.861 9.46549 391.677 9.68309C392.493 9.90069 393.194 10.2135 393.778 10.6215L393.105 12.2535C392.507 11.8727 391.867 11.5871 391.187 11.3967C390.507 11.1927 389.841 11.0907 389.188 11.0907C388.032 11.0907 387.162 11.3015 386.577 11.7231C386.006 12.1447 385.72 12.6887 385.72 13.3551C385.72 13.8447 385.884 14.2459 386.21 14.5587C386.536 14.8579 386.937 15.0959 387.413 15.2727C387.903 15.4359 388.563 15.6127 389.392 15.8031C390.467 16.0615 391.33 16.3199 391.983 16.5783C392.636 16.8367 393.193 17.2311 393.656 17.7615C394.132 18.2919 394.37 19.0059 394.37 19.9035C394.37 20.6515 394.166 21.3383 393.758 21.9639C393.35 22.5759 392.731 23.0655 391.901 23.4327C391.072 23.7863 390.052 23.9631 388.841 23.9631ZM402.309 9.51989C404.158 9.51989 405.614 9.96189 406.675 10.8459C407.735 11.7299 408.266 12.9471 408.266 14.4975C408.266 16.0479 407.735 17.2651 406.675 18.1491C405.614 19.0331 404.158 19.4751 402.309 19.4751H398.78V23.7999H396.74V9.51989H402.309ZM402.248 17.7003C403.54 17.7003 404.526 17.4283 405.206 16.8843C405.886 16.3267 406.226 15.5311 406.226 14.4975C406.226 13.4639 405.886 12.6751 405.206 12.1311C404.526 11.5735 403.54 11.2947 402.248 11.2947H398.78V17.7003H402.248ZM416.606 23.9631C414.702 23.9631 413.219 23.4191 412.159 22.3311C411.098 21.2431 410.567 19.6791 410.567 17.6391V9.51989H412.608V17.5575C412.608 20.6175 413.947 22.1475 416.626 22.1475C417.932 22.1475 418.931 21.7735 419.625 21.0255C420.319 20.2639 420.665 19.1079 420.665 17.5575V9.51989H422.644V17.6391C422.644 19.6927 422.114 21.2635 421.053 22.3515C419.992 23.4259 418.51 23.9631 416.606 23.9631ZM435.823 16.3947C436.652 16.6259 437.305 17.0475 437.781 17.6595C438.257 18.2579 438.495 19.0195 438.495 19.9443C438.495 21.1819 438.026 22.1339 437.087 22.8003C436.163 23.4667 434.809 23.7999 433.028 23.7999H426.214V9.51989H432.62C434.252 9.51989 435.51 9.84629 436.394 10.4991C437.292 11.1519 437.74 12.0563 437.74 13.2123C437.74 13.9603 437.564 14.6063 437.21 15.1503C436.87 15.6943 436.408 16.1091 435.823 16.3947ZM428.254 11.1723V15.7419H432.436C433.483 15.7419 434.286 15.5515 434.843 15.1707C435.415 14.7763 435.7 14.2051 435.7 13.4571C435.7 12.7091 435.415 12.1447 434.843 11.7639C434.286 11.3695 433.483 11.1723 432.436 11.1723H428.254ZM432.946 22.1475C434.102 22.1475 434.973 21.9571 435.557 21.5763C436.142 21.1955 436.435 20.5971 436.435 19.7811C436.435 18.1899 435.272 17.3943 432.946 17.3943H428.254V22.1475H432.946ZM441.042 9.51989H443.082V22.0251H450.813V23.7999H441.042V9.51989ZM452.544 9.51989H454.584V23.7999H452.544V9.51989ZM462.897 17.4555L460.286 20.1075V23.7999H458.246V9.51989H460.286V17.4963L468.038 9.51989H470.363L464.264 15.9459L470.751 23.7999H468.364L462.897 17.4555ZM480.818 20.2299H473.23L471.659 23.7999H469.557L476.024 9.51989H478.044L484.531 23.7999H482.389L480.818 20.2299ZM480.104 18.5979L477.024 11.6007L473.944 18.5979H480.104ZM490.209 23.9631C489.135 23.9631 488.094 23.7999 487.088 23.4735C486.095 23.1335 485.313 22.6983 484.742 22.1679L485.497 20.5767C486.041 21.0663 486.734 21.4675 487.578 21.7803C488.434 22.0795 489.312 22.2291 490.209 22.2291C491.392 22.2291 492.276 22.0319 492.861 21.6375C493.446 21.2295 493.738 20.6923 493.738 20.0259C493.738 19.5363 493.575 19.1419 493.249 18.8427C492.936 18.5299 492.542 18.2919 492.066 18.1287C491.603 17.9655 490.944 17.7819 490.087 17.5779C489.012 17.3195 488.142 17.0611 487.476 16.8027C486.823 16.5443 486.258 16.1499 485.782 15.6195C485.32 15.0755 485.089 14.3479 485.089 13.4367C485.089 12.6751 485.286 11.9883 485.68 11.3763C486.088 10.7643 486.7 10.2747 487.516 9.90749C488.332 9.54029 489.346 9.35669 490.556 9.35669C491.399 9.35669 492.229 9.46549 493.045 9.68309C493.861 9.90069 494.561 10.2135 495.146 10.6215L494.473 12.2535C493.874 11.8727 493.235 11.5871 492.555 11.3967C491.875 11.1927 491.209 11.0907 490.556 11.0907C489.4 11.0907 488.53 11.3015 487.945 11.7231C487.374 12.1447 487.088 12.6887 487.088 13.3551C487.088 13.8447 487.251 14.2459 487.578 14.5587C487.904 14.8579 488.305 15.0959 488.781 15.2727C489.271 15.4359 489.93 15.6127 490.76 15.8031C491.834 16.0615 492.698 16.3199 493.351 16.5783C494.004 16.8367 494.561 17.2311 495.024 17.7615C495.5 18.2919 495.737 19.0059 495.737 19.9035C495.737 20.6515 495.534 21.3383 495.126 21.9639C494.718 22.5759 494.099 23.0655 493.269 23.4327C492.439 23.7863 491.42 23.9631 490.209 23.9631ZM498.107 9.51989H500.147V23.7999H498.107V9.51989ZM221.912 43.5199C223.761 43.5199 225.217 43.9619 226.277 44.8459C227.338 45.7299 227.868 46.9471 227.868 48.4975C227.868 50.0479 227.338 51.2651 226.277 52.1491C225.217 53.0331 223.761 53.4751 221.912 53.4751H218.383V57.7999H216.342V43.5199H221.912ZM221.85 51.7003C223.142 51.7003 224.129 51.4283 224.809 50.8843C225.489 50.3267 225.828 49.5311 225.828 48.4975C225.828 47.4639 225.489 46.6751 224.809 46.1311C224.129 45.5735 223.142 45.2947 221.85 45.2947H218.383V51.7003H221.85ZM239.801 57.7999L236.72 53.4139C236.34 53.4411 236.04 53.4547 235.823 53.4547H232.294V57.7999H230.254V43.5199H235.823C237.672 43.5199 239.128 43.9619 240.188 44.8459C241.249 45.7299 241.78 46.9471 241.78 48.4975C241.78 49.5991 241.508 50.5375 240.964 51.3127C240.42 52.0879 239.644 52.6523 238.638 53.0059L242.024 57.7999H239.801ZM235.762 51.7207C237.054 51.7207 238.04 51.4419 238.72 50.8843C239.4 50.3267 239.74 49.5311 239.74 48.4975C239.74 47.4639 239.4 46.6751 238.72 46.1311C238.04 45.5735 237.054 45.2947 235.762 45.2947H232.294V51.7207H235.762ZM254.827 56.0251V57.7999H244.464V43.5199H254.541V45.2947H246.504V49.6807H253.664V51.4147H246.504V56.0251H254.827ZM268.187 56.0251V57.7999H256.253V56.4127L265.229 45.2947H256.396V43.5199H267.922V44.9071L258.987 56.0251H268.187ZM270.313 43.5199H272.353V57.7999H270.313V43.5199ZM276.017 43.5199H282.035C283.544 43.5199 284.884 43.8191 286.053 44.4175C287.223 45.0159 288.127 45.8591 288.767 46.9471C289.419 48.0215 289.746 49.2591 289.746 50.6599C289.746 52.0607 289.419 53.3051 288.767 54.3931C288.127 55.4675 287.223 56.3039 286.053 56.9023C284.884 57.5007 283.544 57.7999 282.035 57.7999H276.017V43.5199ZM281.912 56.0251C283.068 56.0251 284.081 55.8007 284.952 55.3519C285.836 54.9031 286.516 54.2775 286.992 53.4751C287.468 52.6591 287.706 51.7207 287.706 50.6599C287.706 49.5991 287.468 48.6675 286.992 47.8651C286.516 47.0491 285.836 46.4167 284.952 45.9679C284.081 45.5191 283.068 45.2947 281.912 45.2947H278.057V56.0251H281.912ZM302.622 56.0251V57.7999H292.258V43.5199H302.336V45.2947H294.298V49.6807H301.459V51.4147H294.298V56.0251H302.622ZM317.593 43.5199V57.7999H315.921L307.353 47.1511V57.7999H305.313V43.5199H306.985L315.553 54.1687V43.5199H317.593ZM324.092 45.2947H319.196V43.5199H331.007V45.2947H326.111V57.7999H324.092V45.2947ZM332.617 43.5199H334.657V57.7999H332.617V43.5199ZM355.467 43.5199V57.7999H353.427V51.4351H345.226V57.7999H343.186V43.5199H345.226V49.6603H353.427V43.5199H355.467ZM365.045 57.9631C363.141 57.9631 361.658 57.4191 360.598 56.3311C359.537 55.2431 359.006 53.6791 359.006 51.6391V43.5199H361.047V51.5575C361.047 54.6175 362.386 56.1475 365.065 56.1475C366.371 56.1475 367.37 55.7735 368.064 55.0255C368.758 54.2639 369.104 53.1079 369.104 51.5575V43.5199H371.083V51.6391C371.083 53.6927 370.553 55.2635 369.492 56.3515C368.431 57.4259 366.949 57.9631 365.045 57.9631ZM385.323 56.0251V57.7999H373.388V56.4127L382.364 45.2947H373.531V43.5199H385.057V44.9071L376.122 56.0251H385.323ZM393.367 57.9631C391.463 57.9631 389.981 57.4191 388.92 56.3311C387.859 55.2431 387.328 53.6791 387.328 51.6391V43.5199H389.368V51.5575C389.368 54.6175 390.708 56.1475 393.387 56.1475C394.693 56.1475 395.692 55.7735 396.386 55.0255C397.08 54.2639 397.426 53.1079 397.426 51.5575V43.5199H399.405V51.6391C399.405 53.6927 398.875 55.2635 397.814 56.3515C396.753 57.4259 395.271 57.9631 393.367 57.9631ZM412.523 57.7999L409.442 53.4139C409.061 53.4411 408.762 53.4547 408.545 53.4547H405.015V57.7999H402.975V43.5199H408.545C410.394 43.5199 411.849 43.9619 412.91 44.8459C413.971 45.7299 414.501 46.9471 414.501 48.4975C414.501 49.5991 414.229 50.5375 413.685 51.3127C413.141 52.0879 412.366 52.6523 411.36 53.0059L414.746 57.7999H412.523ZM408.483 51.7207C409.775 51.7207 410.761 51.4419 411.441 50.8843C412.121 50.3267 412.461 49.5311 412.461 48.4975C412.461 47.4639 412.121 46.6751 411.441 46.1311C410.761 45.5735 409.775 45.2947 408.483 45.2947H405.015V51.7207H408.483ZM417.184 43.5199H419.224V57.7999H417.184V43.5199ZM422.889 43.5199H428.907C430.417 43.5199 431.756 43.8191 432.926 44.4175C434.095 45.0159 435 45.8591 435.639 46.9471C436.292 48.0215 436.618 49.2591 436.618 50.6599C436.618 52.0607 436.292 53.3051 435.639 54.3931C435 55.4675 434.095 56.3039 432.926 56.9023C431.756 57.5007 430.417 57.7999 428.907 57.7999H422.889V43.5199ZM428.785 56.0251C429.941 56.0251 430.954 55.8007 431.824 55.3519C432.708 54.9031 433.388 54.2775 433.864 53.4751C434.34 52.6591 434.578 51.7207 434.578 50.6599C434.578 49.5991 434.34 48.6675 433.864 47.8651C433.388 47.0491 432.708 46.4167 431.824 45.9679C430.954 45.5191 429.941 45.2947 428.785 45.2947H424.929V56.0251H428.785ZM448.029 54.2299H440.44L438.869 57.7999H436.768L443.235 43.5199H445.254L451.742 57.7999H449.6L448.029 54.2299ZM447.315 52.5979L444.234 45.6007L441.154 52.5979H447.315ZM462.955 50.5783H464.913V56.1475C464.206 56.7323 463.383 57.1811 462.445 57.4939C461.506 57.8067 460.527 57.9631 459.507 57.9631C458.066 57.9631 456.767 57.6503 455.611 57.0247C454.455 56.3855 453.544 55.5151 452.877 54.4135C452.224 53.2983 451.898 52.0471 451.898 50.6599C451.898 49.2727 452.224 48.0215 452.877 46.9063C453.544 45.7911 454.455 44.9207 455.611 44.2951C456.78 43.6695 458.093 43.3567 459.548 43.3567C460.69 43.3567 461.724 43.5471 462.649 43.9279C463.587 44.2951 464.383 44.8391 465.035 45.5599L463.771 46.8247C462.628 45.7231 461.248 45.1723 459.63 45.1723C458.542 45.1723 457.562 45.4103 456.692 45.8863C455.835 46.3487 455.162 47.0015 454.672 47.8447C454.183 48.6743 453.938 49.6127 453.938 50.6599C453.938 51.6935 454.183 52.6319 454.672 53.4751C455.162 54.3047 455.835 54.9575 456.692 55.4335C457.562 55.9095 458.535 56.1475 459.609 56.1475C460.888 56.1475 462.003 55.8415 462.955 55.2295V50.5783ZM468.208 43.5199H470.248V57.7999H468.208V43.5199Z" fill="white"/>
<path d="M217.492 81.0331H223.918V108.8H217.492V81.0331ZM234.435 109.276C232.557 109.276 230.825 108.932 229.239 108.245C227.678 107.531 226.396 106.526 225.391 105.23L228.961 100.946C230.468 102.982 232.187 104 234.118 104C236.736 104 238.045 102.466 238.045 99.3989V86.1899H228.286V81.0331H244.431V99.0419C244.431 102.453 243.585 105.018 241.892 106.737C240.2 108.43 237.714 109.276 234.435 109.276ZM254.875 86.2691H245.99V81.0331H270.186V86.2691H261.301V108.8H254.875V86.2691ZM272.454 81.0331H278.88V108.8H272.454V81.0331ZM309.547 108.8L309.507 92.1399L301.336 105.865H298.44L290.309 92.4969V108.8H284.279V81.0331H289.595L299.987 98.2881L310.221 81.0331H315.497L315.576 108.8H309.547ZM334.421 109.276C331.539 109.276 328.934 108.654 326.607 107.412C324.306 106.169 322.495 104.463 321.172 102.295C319.877 100.1 319.229 97.6404 319.229 94.9167C319.229 92.1929 319.877 89.7467 321.172 87.5781C322.495 85.3834 324.306 83.6644 326.607 82.4217C328.934 81.1786 331.539 80.5571 334.421 80.5571C337.304 80.5571 339.895 81.1786 342.196 82.4217C344.498 83.6644 346.307 85.3834 347.63 87.5781C348.952 89.7467 349.615 92.1929 349.615 94.9167C349.615 97.6404 348.952 100.1 347.63 102.295C346.307 104.463 344.498 106.169 342.196 107.412C339.895 108.654 337.304 109.276 334.421 109.276ZM334.421 103.802C336.061 103.802 337.542 103.432 338.864 102.691C340.187 101.924 341.217 100.867 341.958 99.5179C342.723 98.1691 343.108 96.6354 343.108 94.9167C343.108 93.1976 342.723 91.6639 341.958 90.3151C341.217 88.9667 340.187 87.9219 338.864 87.1817C337.542 86.4147 336.061 86.0311 334.421 86.0311C332.782 86.0311 331.301 86.4147 329.978 87.1817C328.656 87.9219 327.612 88.9667 326.845 90.3151C326.105 91.6639 325.734 93.1976 325.734 94.9167C325.734 96.6354 326.105 98.1691 326.845 99.5179C327.612 100.867 328.656 101.924 329.978 102.691C331.301 103.432 332.782 103.802 334.421 103.802ZM353.253 81.0331H359.679V108.8H353.253V81.0331ZM378.406 98.9627V108.8H371.98V98.8831L361.23 81.0331H368.053L375.472 93.3697L382.888 81.0331H389.195L378.406 98.9627ZM426.204 81.0331V108.8H419.778V97.4157H407.164V108.8H400.738V81.0331H407.164V91.9811H419.778V81.0331H426.204ZM431.582 81.0331H438.008V108.8H431.582V81.0331ZM468.676 108.8L468.639 92.1399L460.465 105.865H457.572L449.439 92.4969V108.8H443.411V81.0331H448.725L459.119 98.2881L469.353 81.0331H474.626L474.708 108.8H468.676ZM493.551 109.276C490.668 109.276 488.063 108.654 485.738 107.412C483.436 106.169 481.624 104.463 480.301 102.295C479.006 100.1 478.36 97.6404 478.36 94.9167C478.36 92.1929 479.006 89.7467 480.301 87.5781C481.624 85.3834 483.436 83.6644 485.738 82.4217C488.063 81.1786 490.668 80.5571 493.551 80.5571C496.434 80.5571 499.025 81.1786 501.327 82.4217C503.625 83.6644 505.437 85.3834 506.76 87.5781C508.082 89.7467 508.742 92.1929 508.742 94.9167C508.742 97.6404 508.082 100.1 506.76 102.295C505.437 104.463 503.625 106.169 501.327 107.412C499.025 108.654 496.434 109.276 493.551 109.276ZM493.551 103.802C495.19 103.802 496.672 103.432 497.995 102.691C499.317 101.924 500.347 100.867 501.089 99.5179C501.854 98.1691 502.238 96.6354 502.238 94.9167C502.238 93.1976 501.854 91.6639 501.089 90.3151C500.347 88.9667 499.317 87.9219 497.995 87.1817C496.672 86.4147 495.19 86.0311 493.551 86.0311C491.912 86.0311 490.43 86.4147 489.107 87.1817C487.788 87.9219 486.741 88.9667 485.976 90.3151C485.234 91.6639 484.864 93.1976 484.864 94.9167C484.864 96.6354 485.234 98.1691 485.976 99.5179C486.741 100.867 487.788 101.924 489.107 102.691C490.43 103.432 491.912 103.802 493.551 103.802ZM524.511 98.9627V108.8H518.085V98.8831L507.334 81.0331H514.158L521.574 93.3697L528.992 81.0331H535.299L524.511 98.9627ZM553.381 102.85H540.488L538.03 108.8H531.444L543.82 81.0331H550.168L562.584 108.8H555.839L553.381 102.85ZM551.358 97.9709L546.955 87.3401L542.552 97.9709H551.358ZM242.76 159.8L242.72 143.14L234.549 156.865H231.653L223.522 143.497V159.8H217.492V132.033H222.808L233.2 149.288L243.434 132.033H248.71L248.789 159.8H242.76ZM254.187 132.033H260.613V159.8H254.187V132.033ZM266.013 132.033H272.439V154.564H286.362V159.8H266.013V132.033ZM288.762 132.033H295.188V154.564H309.111V159.8H288.762V132.033ZM311.512 132.033H317.938V159.8H311.512V132.033ZM336.665 149.963V159.8H330.239V149.883L319.489 132.033H326.312L333.73 144.37L341.149 132.033H347.456L336.665 149.963ZM377.284 153.85H364.392L361.933 159.8H355.348L367.724 132.033H374.071L386.485 159.8H379.743L377.284 153.85ZM375.261 148.971L370.858 138.34L366.455 148.971H375.261ZM406.552 145.48H412.423V156.746C410.914 157.883 409.17 158.755 407.187 159.364C405.202 159.972 403.206 160.276 401.197 160.276C398.313 160.276 395.723 159.668 393.421 158.451C391.122 157.208 389.31 155.503 387.988 153.334C386.692 151.139 386.043 148.667 386.043 145.917C386.043 143.166 386.692 140.707 387.988 138.539C389.31 136.344 391.136 134.638 393.462 133.422C395.787 132.179 398.405 131.557 401.316 131.557C403.75 131.557 405.957 131.967 407.939 132.787C409.924 133.607 411.59 134.797 412.937 136.357L408.813 140.165C406.83 138.076 404.437 137.031 401.632 137.031C399.86 137.031 398.286 137.401 396.913 138.142C395.539 138.882 394.468 139.927 393.7 141.276C392.931 142.624 392.55 144.171 392.55 145.917C392.55 147.635 392.931 149.169 393.7 150.518C394.468 151.867 395.525 152.924 396.872 153.691C398.249 154.432 399.809 154.802 401.554 154.802C403.403 154.802 405.069 154.405 406.552 153.612V145.48ZM438.702 154.643V159.8H417.2V132.033H438.185V137.19H423.589V143.219H436.478V148.217H423.589V154.643H438.702ZM468.088 132.033V159.8H462.815L448.97 142.942V159.8H442.622V132.033H447.94L461.744 148.892V132.033H468.088ZM479.22 137.269H470.336V132.033H494.533V137.269H485.646V159.8H479.22V137.269ZM496.801 132.033H503.227V154.564H517.15V159.8H496.801V132.033ZM519.551 132.033H525.977V159.8H519.551V132.033ZM550.137 145.48H556.009V156.746C554.499 157.883 552.755 158.755 550.773 159.364C548.787 159.972 546.791 160.276 544.782 160.276C541.899 160.276 539.308 159.668 537.006 158.451C534.708 157.208 532.896 155.503 531.573 153.334C530.278 151.139 529.628 148.667 529.628 145.917C529.628 143.166 530.278 140.707 531.573 138.539C532.896 136.344 534.721 134.638 537.047 133.422C539.376 132.179 541.994 131.557 544.901 131.557C547.335 131.557 549.542 131.967 551.524 132.787C553.51 133.607 555.176 134.797 556.522 136.357L552.398 140.165C550.416 138.076 548.022 137.031 545.217 137.031C543.446 137.031 541.875 137.401 540.498 138.142C539.124 138.882 538.053 139.927 537.285 141.276C536.52 142.624 536.136 144.171 536.136 145.917C536.136 147.635 536.52 149.169 537.285 150.518C538.053 151.867 539.111 152.924 540.457 153.691C541.834 154.432 543.395 154.802 545.139 154.802C546.992 154.802 548.658 154.405 550.137 153.612V145.48ZM560.786 132.033H567.212V159.8H560.786V132.033Z" fill="white"/>
</svg>
