<svg width="2057" height="284" viewBox="0 0 2057 284" fill="none" xmlns="http://www.w3.org/2000/svg">
<path d="M1590.46 1.60306C1542.57 1.15719e-05 1490.8 27.5572 1466.25 79.44C1451.01 108.727 1439.38 141.323 1431.64 173.333C1430.95 176.143 1430.31 178.963 1429.71 181.793C1428.94 186.348 1428.88 192.188 1429.29 198.142C1431.18 223.333 1453.55 253.791 1490.42 255.521H1534.13C1582.01 257.111 1633.75 229.541 1658.33 177.659C1673.57 148.371 1685.19 115.75 1692.93 83.7657C1693.61 80.9158 1694.27 78.0914 1694.86 75.2924C1695.66 70.725 1695.71 64.9108 1695.28 58.9439C1693.4 33.7404 1671.02 3.30789 1634.16 1.59034H1590.45L1590.46 1.60306ZM769.43 3.91858L789.01 253.053H828.272H828.043H830.358C834.125 252.931 837.807 251.912 841.1 250.079C844.393 248.247 847.201 245.655 849.29 242.518H849.315L1009.39 3.9313H967.991L853.323 175.178L839.862 3.94402H769.417L769.43 3.91858ZM1038 3.91858L946.134 253.053H1016.66L1108.49 3.9313H1038V3.91858ZM1203.46 3.91858C1140.12 4.68193 1112.13 75.1652 1146.73 120.305C1164.29 141.743 1189.35 163.969 1203.51 187.442C1212.48 200.139 1202.89 221.31 1185.75 221.513H1073.91L1062.33 253.053H1203.93C1259.44 252.887 1297 187.531 1259.75 137.404C1242.56 112.01 1215.29 94.6689 1199.16 69.8599C1189.58 56.921 1199.21 35.6742 1216.54 35.4452H1320.64L1332.23 3.91858H1203.46ZM1381.03 3.91858L1289.22 253.065H1359.72L1451.57 3.9313H1381.03V3.91858ZM1761.67 3.91858L1669.43 253.053H1705.76L1769.32 81.3484L1769.64 84.4272L1826.74 238.625C1828.47 242.71 1831.3 246.228 1834.93 248.779C1838.55 251.33 1842.82 252.81 1847.25 253.053H1880.47L1972.73 3.9313H1936.41L1874.07 172.302L1807.67 3.9313H1761.65L1761.67 3.91858ZM1606.56 27.3536C1619.86 28.3714 1630.42 39.5546 1630.42 53.1169C1630.52 56.4502 1629.95 59.7454 1628.7 62.7606L1582.11 189.63C1572.71 213.982 1550.87 228.905 1524.91 229.669H1518.03C1511.54 229.151 1505.49 226.213 1501.07 221.437C1496.65 216.662 1494.19 210.399 1494.17 203.893C1494.06 200.582 1494.65 197.286 1495.92 194.223L1542.48 67.3535C1551.9 43.0024 1573.74 28.117 1599.73 27.3663H1606.56V27.3536Z" fill="white"/>
<path d="M115.945 3.93121L24.0879 253.065H98.9604L142.892 133.918H232.026L188.095 253.065H246.581C256.479 253.065 264.978 246.819 268.426 238.104C268.464 237.976 268.502 237.938 268.553 237.875L354.812 3.91848H279.94L244.571 99.847H155.436L190.805 3.91848H115.945V3.93121ZM402.382 3.93121L310.55 253.065H385.385L477.242 3.93121H402.382ZM528.17 3.93121L436.326 253.065H511.173L546.389 157.519L565.091 143.155L614.748 239.414L614.773 239.287L614.9 239.516C616.95 243.77 620.223 247.315 624.302 249.695C628.38 252.075 633.076 253.183 637.788 252.874C637.61 252.874 637.407 253.002 637.216 253.002H700.778L621.707 99.6561L746.427 3.90576H690.485L568.476 97.5823L603.017 3.90576H528.17V3.93121Z" fill="white"/>
<path d="M2027.91 25.9541C2027.91 39.8345 2017.02 50.7123 2002.85 50.7123C1988.83 50.7123 1977.66 39.8345 1977.66 25.9541C1977.66 12.3664 1988.83 1.47583 2002.85 1.47583C2017.02 1.47583 2027.91 12.3664 2027.91 25.9541ZM1983.92 25.9541C1983.92 36.8447 1991.96 45.4961 2003 45.4961C2013.75 45.4961 2021.65 36.8447 2021.65 26.0941C2021.65 15.2162 2013.75 6.39948 2002.85 6.39948C1991.94 6.39948 1983.92 15.2162 1983.92 25.9541ZM1998.97 38.7785H1993.31V14.3257C1996.41 13.7716 1999.57 13.516 2002.72 13.5623C2007.33 13.5623 2009.43 14.3257 2011.21 15.3689C2011.98 16.0277 2012.6 16.8525 2013.01 17.7819C2013.42 18.7114 2013.62 19.7217 2013.59 20.7379C2013.59 23.4351 2011.5 25.5088 2008.51 26.3994V26.7048C2010.9 27.5953 2012.25 29.402 2013 32.6844C2013.75 36.4121 2014.2 37.9007 2014.78 38.7912H2008.67C2007.92 37.9007 2007.48 35.6615 2006.73 32.8371C2006.28 30.1399 2004.79 28.9567 2001.66 28.9567H1998.97V38.7912V38.7785ZM1999.12 24.9109H2001.79C2004.93 24.9109 2007.48 23.8676 2007.48 21.3231C2007.48 19.0966 2005.84 17.6081 2002.25 17.6081C2000.77 17.6081 1999.72 17.7353 1999.12 17.9007V24.8982V24.9109Z" fill="white"/>
</svg>
