<svg width="61" height="61" viewBox="0 0 61 61" fill="none" xmlns="http://www.w3.org/2000/svg">
<rect width="61" height="61" rx="12" fill="#282828"/>
<g clip-path="url(#clip0_486_1569)">
<path d="M29.7619 34.8242H22.7658L21.3595 39.2188C21.3244 39.3945 21.1838 39.5 21.008 39.4648H17.4923C17.2814 39.4648 17.2463 39.3594 17.2814 39.1133L23.3283 21.7461C23.3986 21.5703 23.4338 21.3594 23.5041 21.1133C23.5744 20.7266 23.6095 20.3047 23.6095 19.8828C23.5744 19.7773 23.6798 19.707 23.7502 19.6719H28.6017C28.7423 19.6719 28.8127 19.7422 28.8478 19.8125L35.7033 39.1133C35.7736 39.3242 35.7033 39.4297 35.5275 39.4297H31.59C31.4494 39.4648 31.3439 39.3594 31.2736 39.2188L29.7619 34.8242ZM23.8556 30.9922H28.6017C28.4963 30.6055 28.3556 30.1133 28.1798 29.6562C28.0041 29.1641 27.8283 28.6016 27.6877 28.0391C27.5119 27.4414 27.3361 26.8789 27.1603 26.3164C26.9845 25.7187 26.8088 25.1914 26.6681 24.6641C26.5275 24.1367 26.3869 23.6445 26.2463 23.1875H26.2111C26.0353 23.9961 25.8244 24.8047 25.5783 25.6133C25.297 26.5273 25.0158 27.4414 24.6994 28.3906C24.4181 29.3398 24.1369 30.2188 23.8556 30.9922ZM39.8869 23.0117C39.2541 23.0469 38.6564 22.8008 38.2345 22.3438C37.8127 21.8867 37.5666 21.2539 37.6017 20.6211C37.5666 19.9883 37.8127 19.3906 38.2697 18.9688C38.7267 18.5469 39.3244 18.3008 39.922 18.3008C40.6603 18.3008 41.2228 18.5117 41.6447 18.9688C42.0666 19.4258 42.2775 20.0234 42.2775 20.6211C42.3127 21.2539 42.0666 21.8867 41.6095 22.3438C41.1525 22.8008 40.5197 23.0469 39.8869 23.0117ZM37.7775 39.2891V24.8398C37.7775 24.6641 37.8478 24.5938 38.0236 24.5938H41.7502C41.9259 24.5938 41.9963 24.6992 41.9963 24.8398V39.2891C41.9963 39.5 41.9259 39.6055 41.7502 39.6055H38.0588C37.883 39.5703 37.7775 39.4648 37.7775 39.2891Z" fill="#FF9A00"/>
</g>
<defs>
<clipPath id="clip0_486_1569">
<rect width="45" height="45" fill="white" transform="translate(8 8)"/>
</clipPath>
</defs>
</svg>
