<svg width="554" height="600" viewBox="0 0 554 600" fill="none" xmlns="http://www.w3.org/2000/svg">
<g clip-path="url(#clip0_949_828)">
<path fill-rule="evenodd" clip-rule="evenodd" d="M440.14 117.86L352.97 32.1899C343.026 22.0011 331.143 13.9044 318.023 8.37624C304.902 2.84811 290.808 0.000244141 276.57 0.000244141C262.333 0.000244141 248.239 2.84811 235.118 8.37624C221.998 13.9044 210.115 22.0011 200.17 32.1899L112.94 117.86C102.789 127.767 94.7227 139.605 89.2151 152.677C83.7074 165.749 80.8701 179.79 80.8701 193.975C80.8701 208.16 83.7074 222.201 89.2151 235.273C94.7227 248.344 102.789 260.182 112.94 270.09L124.05 280.91C143.6 300.18 245.69 344.17 254.85 347.91V181.51C254.85 176.41 251.29 171.84 246.45 169.95L192.07 148.71C187.62 152.427 182.057 154.556 176.262 154.76C170.467 154.963 164.768 153.23 160.068 149.834C155.367 146.439 151.932 141.574 150.304 136.008C148.677 130.442 148.95 124.492 151.081 119.099C153.212 113.706 157.079 109.176 162.071 106.225C167.063 103.275 172.896 102.071 178.648 102.806C184.401 103.54 189.744 106.169 193.836 110.279C197.927 114.389 200.532 119.744 201.24 125.5L254.14 146.19C268.517 151.977 284.574 151.977 298.95 146.19L351.85 125.5C352.553 119.727 355.16 114.354 359.259 110.229C363.358 106.104 368.714 103.463 374.482 102.723C380.25 101.983 386.1 103.187 391.107 106.144C396.114 109.102 399.993 113.643 402.129 119.052C404.266 124.46 404.539 130.426 402.906 136.007C401.272 141.588 397.824 146.465 393.109 149.868C388.393 153.27 382.677 155.003 376.866 154.794C371.055 154.584 365.479 152.443 361.02 148.71L306.67 170C301.88 171.89 298.32 176.46 298.32 181.56V347.86C307.43 344.17 409.47 300.18 429.13 280.86L440.13 270.04C450.277 260.135 458.34 248.301 463.846 235.234C469.351 222.167 472.188 208.131 472.189 193.952C472.19 179.773 469.355 165.736 463.851 152.669C458.347 139.601 450.286 127.766 440.14 117.86ZM276.55 113.86C270.318 113.858 264.227 112.008 259.046 108.544C253.865 105.08 249.828 100.157 247.445 94.399C245.062 88.6405 244.44 82.3047 245.658 76.1928C246.876 70.0808 249.878 64.4673 254.287 60.0619C258.695 55.6566 264.31 52.6573 270.423 51.4434C276.536 50.2295 282.871 50.8555 288.628 53.2423C294.385 55.629 299.305 59.6693 302.766 64.8522C306.226 70.0351 308.072 76.1278 308.07 82.3599C308.076 86.5032 307.263 90.607 305.68 94.436C304.097 98.2649 301.774 101.744 298.844 104.674C295.915 107.604 292.435 109.927 288.607 111.51C284.778 113.093 280.674 113.905 276.53 113.9L276.55 113.86Z" fill="white"/>
<path d="M18.11 398.66H0V512.03H18.11V398.66Z" fill="white"/>
<path fill-rule="evenodd" clip-rule="evenodd" d="M83.5599 512.03H65.4299V414.65L32.1299 414.81V398.66H117.06V414.81L83.5599 414.65V512.03Z" fill="white"/>
<path fill-rule="evenodd" clip-rule="evenodd" d="M248.57 434.65C248.601 439.585 247.649 444.476 245.77 449.04C243.969 453.422 241.264 457.375 237.83 460.64C234.268 464.073 230.037 466.735 225.4 468.46C220.182 470.429 214.638 471.396 209.06 471.31H189.2V512H170.98V398.66H209.98C215.521 398.568 221.029 399.514 226.22 401.45C230.742 403.12 234.858 405.727 238.3 409.1C241.641 412.307 244.247 416.2 245.94 420.51C247.706 425.014 248.599 429.812 248.57 434.65ZM230.44 434.65C230.44 428.65 228.61 423.78 225.2 420.17C221.79 416.56 216.65 414.81 210.02 414.81H189.2V455.18H209.06C215.727 455.18 220.974 453.36 224.8 449.72C228.51 446.08 230.44 441 230.44 434.65Z" fill="white"/>
<path fill-rule="evenodd" clip-rule="evenodd" d="M348.14 512H329.27L319.35 484.07H275.45L265.68 512H246.89L288.23 398.63H306.77L348.14 512ZM305.41 444.38L297.67 417.47H297.37L289.63 444.38L281.23 468.43H313.81L305.41 444.38Z" fill="white"/>
<path fill-rule="evenodd" clip-rule="evenodd" d="M443.33 433.31C443.484 440.691 441.109 447.903 436.6 453.75C432.016 459.591 425.724 463.856 418.6 465.95L445.37 512H425.82L400.61 468.6H380.91V512H362.73V398.66H404.27C409.919 398.57 415.539 399.48 420.87 401.35C425.418 402.959 429.592 405.473 433.14 408.74C436.406 411.83 438.976 415.58 440.68 419.74C442.475 424.037 443.377 428.654 443.33 433.31ZM425.15 433.31C425.15 427.703 423.42 423.22 419.96 419.86C416.45 416.5 411.26 414.81 404.27 414.81H380.91V452.47H403.77C410.54 452.47 415.77 450.75 419.5 447.27C423.23 443.79 425.14 439.13 425.14 433.31H425.15Z" fill="white"/>
<path fill-rule="evenodd" clip-rule="evenodd" d="M481.01 512H462.83V398.66H481.01V512ZM504.01 451.77L553.14 512H531.62L487.37 457.34V446.93L530.8 398.66H551.62L504.01 451.77Z" fill="white"/>
<path fill-rule="evenodd" clip-rule="evenodd" d="M11.48 572.8C6.39001 572.8 3.14001 573.99 3.14001 578.41C3.14001 581.29 4.74002 582.93 10.4 583.33C17.25 583.87 20.28 586.33 20.28 591.63C20.28 597.7 15.65 600 8.68002 600C5.93623 599.988 3.20721 599.597 0.570007 598.84L1.41 596.23C3.75463 596.937 6.19096 597.295 8.64001 597.29C13.69 597.29 17.18 596.1 17.18 591.67C17.18 588.84 15.62 586.54 9.94 586.13C3.1 585.64 0 583.75 0 578.49C0 572.39 4.47002 570.13 11.43 570.13C14.0966 570.162 16.7482 570.535 19.32 571.24L18.48 573.91C17.14 573.25 13.81 572.8 11.48 572.8Z" fill="white"/>
<path fill-rule="evenodd" clip-rule="evenodd" d="M38.37 599.43H35.37V573.29H25.46V570.83H48.27V573.29H38.37V599.43Z" fill="white"/>
<path fill-rule="evenodd" clip-rule="evenodd" d="M68.2401 590.6H54.2401C53.2401 593.52 52.2401 596.43 51.3001 599.43H48.3701C51.6501 589.87 55.1901 580.43 59.1701 570.83H64.1701C67.4201 580.47 71.4701 591.51 74.9301 599.43H71.6201C70.5701 596.67 69.3901 593.72 68.2401 590.6ZM61.0401 573.12C58.9701 578.21 57.0401 583.18 55.2001 588.12H67.3401C65.5701 583.28 63.8101 578.12 62.2201 573.12H61.0401Z" fill="white"/>
<path fill-rule="evenodd" clip-rule="evenodd" d="M94.4604 570.83C100.83 570.83 102.57 574.72 102.57 579.12C102.57 583.12 100.57 586.67 94.3404 586.67C96.3404 587.36 100.01 592.2 104.34 599.43H100.66C96.0804 591.43 92.3204 587.03 90.1704 587.03H84.6504V599.43H81.6504V570.83H94.4604ZM84.6604 573.29V584.45H94.2604C97.6104 584.45 99.2604 582.36 99.2604 579.07C99.2604 575.34 97.5504 573.29 94.4204 573.29H84.6604Z" fill="white"/>
<path fill-rule="evenodd" clip-rule="evenodd" d="M120.69 599.43H117.67V573.29H107.75V570.83H130.56V573.29H120.69V599.43Z" fill="white"/>
<path fill-rule="evenodd" clip-rule="evenodd" d="M154.16 570.83V596.84H168.91V599.43H151.18V570.83H154.16Z" fill="white"/>
<path fill-rule="evenodd" clip-rule="evenodd" d="M174.28 585C174.28 573.34 178.37 570.14 187.28 570.14C196.19 570.14 200.28 573.34 200.28 585C200.28 596.66 196.21 600 187.28 600C178.35 600 174.28 596.8 174.28 585ZM177.47 585.08C177.47 595.08 179.97 597.42 187.25 597.42C194.53 597.42 197.14 595 197.14 585.07C197.14 574.56 194.63 572.63 187.28 572.63C179.93 572.63 177.47 574.56 177.47 585.07V585.08Z" fill="white"/>
<path fill-rule="evenodd" clip-rule="evenodd" d="M220.76 570.13C223.463 570.156 226.152 570.529 228.76 571.24L227.82 573.91C225.563 573.16 223.198 572.785 220.82 572.8C213.6 572.8 210.89 574.35 210.89 584.85C210.89 595.35 213.6 597.29 220.82 597.29C223.193 597.291 225.553 596.934 227.82 596.23L228.76 598.84C226.16 599.597 223.468 599.987 220.76 600C211.91 600 207.67 596.51 207.67 584.85C207.67 573.19 211.91 570.13 220.76 570.13Z" fill="white"/>
<path fill-rule="evenodd" clip-rule="evenodd" d="M252.39 590.6H238.44C237.44 593.52 236.44 596.43 235.44 599.43H232.53C235.82 589.87 239.34 580.43 243.32 570.83H248.32C251.55 580.47 255.63 591.51 259.06 599.43H255.73C254.72 596.67 253.55 593.72 252.39 590.6ZM245.14 573.12C243.08 578.21 241.14 583.18 239.32 588.12H251.45C249.69 583.28 247.92 578.12 246.32 573.12H245.14Z" fill="white"/>
<path fill-rule="evenodd" clip-rule="evenodd" d="M268.8 570.83V596.84H283.58V599.43H265.84V570.83H268.8Z" fill="white"/>
<path fill-rule="evenodd" clip-rule="evenodd" d="M327.14 586.45H319.67V584.08H330.12V599.08C327.256 599.774 324.317 600.11 321.37 600.08C312.49 600.08 308.25 596.59 308.25 584.93C308.25 573.27 312.49 570.21 321.37 570.21C324.073 570.235 326.762 570.608 329.37 571.32L328.44 573.9C326.173 573.196 323.813 572.839 321.44 572.84C314.2 572.84 311.44 574.43 311.44 584.93C311.44 595.43 314.15 597.45 321.44 597.45C323.371 597.442 325.294 597.207 327.17 596.75L327.14 586.45Z" fill="white"/>
<path fill-rule="evenodd" clip-rule="evenodd" d="M338.25 585C338.25 573.34 342.36 570.14 351.25 570.14C360.14 570.14 364.25 573.34 364.25 585C364.25 596.66 360.2 600 351.25 600C342.3 600 338.25 596.8 338.25 585ZM341.45 585.08C341.45 595.08 343.95 597.42 351.22 597.42C358.49 597.42 361.14 595 361.14 585.07C361.14 574.56 358.59 572.63 351.26 572.63C343.93 572.63 341.45 574.56 341.45 585.07V585.08Z" fill="white"/>
<path fill-rule="evenodd" clip-rule="evenodd" d="M404.52 586.45H397.03V584.08H407.48V599.08C404.609 599.776 401.663 600.112 398.71 600.08C389.85 600.08 385.64 596.59 385.64 584.93C385.64 573.27 389.85 570.21 398.71 570.21C401.413 570.234 404.102 570.607 406.71 571.32L405.78 573.9C403.513 573.197 401.153 572.839 398.78 572.84C391.54 572.84 388.86 574.43 388.86 584.93C388.86 595.43 391.54 597.45 398.78 597.45C400.717 597.44 402.647 597.205 404.53 596.75L404.52 586.45Z" fill="white"/>
<path fill-rule="evenodd" clip-rule="evenodd" d="M420.19 570.83V596.84H434.95V599.43H417.23V570.83H420.19Z" fill="white"/>
<path fill-rule="evenodd" clip-rule="evenodd" d="M440.33 585C440.33 573.34 444.42 570.14 453.33 570.14C462.24 570.14 466.33 573.34 466.33 585C466.33 596.66 462.27 600 453.33 600C444.39 600 440.33 596.8 440.33 585ZM443.51 585.08C443.51 595.08 446.01 597.42 453.29 597.42C460.57 597.42 463.14 595 463.14 585.07C463.14 574.56 460.61 572.63 453.27 572.63C445.93 572.63 443.51 574.56 443.51 585.07V585.08Z" fill="white"/>
<path fill-rule="evenodd" clip-rule="evenodd" d="M496.609 591.34C496.609 596.67 494.06 599.43 489.46 599.43H475.27V570.83H488.99C494.72 570.83 495.81 574.03 495.81 577.6C495.81 581 495.24 583.6 490.15 584.04C495.57 584.28 496.609 587.44 496.609 591.34ZM492.799 578C492.799 575.13 491.99 573.33 488.99 573.33H478.21V582.93H488.99C491.97 582.89 492.799 580.51 492.799 578ZM493.44 591.34C493.44 587.89 492.2 585.34 489.26 585.34H478.26V597H489.48C492.46 597 493.44 594.63 493.44 591.3V591.34Z" fill="white"/>
<path fill-rule="evenodd" clip-rule="evenodd" d="M521.99 590.6H507.99C506.99 593.52 505.99 596.43 504.99 599.43H502.14C505.41 589.87 508.96 580.43 512.94 570.83H517.94C521.19 580.47 525.22 591.51 528.7 599.43H525.44C524.32 596.67 523.14 593.72 521.99 590.6ZM514.78 573.12C512.72 578.21 510.78 583.18 508.96 588.12H521.14C519.36 583.28 517.61 578.12 515.99 573.12H514.78Z" fill="white"/>
<path fill-rule="evenodd" clip-rule="evenodd" d="M538.41 570.83V596.84H553.16V599.43H535.44V570.83H538.41Z" fill="white"/>
</g>
<defs>
<clipPath id="clip0_949_828">
<rect width="553.16" height="600" fill="white"/>
</clipPath>
</defs>
</svg>
