<svg width="139" height="60" viewBox="0 0 139 60" fill="none" xmlns="http://www.w3.org/2000/svg">
<g clip-path="url(#clip0_486_3006)">
<path d="M0.6875 45.0367V16.7607L8.92069 25.0367V45.0367H0.6875Z" fill="white"/>
<path d="M40.1393 45.0366V16.7607L31.9062 25.0366V45.0366H40.1393Z" fill="white"/>
<path d="M20.585 22.066L7.20611 8.61776L1.03125 14.8246L20.585 34.4799L48.3718 5.85914L42.54 -0.00292969L20.585 22.066Z" fill="white"/>
<path d="M69.5081 28.3361C70.5037 28.4831 71.2646 28.9687 71.7915 29.7926C72.3184 30.587 72.5818 31.6758 72.5818 33.0588V37.3843C72.5818 40.0326 71.9966 41.9452 70.8254 43.1222C69.6542 44.2993 67.7518 44.8877 65.1171 44.8877H48.6509C48.2118 44.8877 47.9922 44.667 47.9922 44.2257V14.6533C47.9922 14.2119 48.2118 13.9912 48.6509 13.9912H65.1171C67.3126 13.9912 68.9519 14.5356 70.0351 15.6243C71.1472 16.6836 71.7036 18.2726 71.7036 20.3912V23.0836C71.7036 24.4666 71.5136 25.5848 71.1328 26.4381C70.752 27.2914 70.2107 27.8505 69.5081 28.1154V28.3361ZM52.1636 17.7429V27.0119H64.0194C65.2196 27.0119 66.0978 26.7323 66.654 26.1733C67.2394 25.5848 67.5322 24.6873 67.5322 23.4809V21.0533C67.5322 18.8463 66.4637 17.7429 64.3268 17.7429H52.1636ZM68.4104 34.2947C68.4104 33.0882 68.1176 32.2055 67.5322 31.6463C66.976 31.0579 66.0978 30.7636 64.8976 30.7636H52.1636V41.1361H64.8976C66.0978 41.1361 66.976 40.8565 67.5322 40.2974C68.1176 39.7089 68.4104 38.8114 68.4104 37.605V34.2947ZM87.9331 45.1084C85.416 45.1084 83.4983 44.461 82.181 43.1663C80.8932 41.8422 80.249 39.9149 80.249 37.3843V21.4947C80.249 18.9641 80.8932 17.0514 82.181 15.7567C83.4983 14.4326 85.416 13.7705 87.9331 13.7705H98.4715C100.989 13.7705 102.892 14.4326 104.18 15.7567C105.498 17.0514 106.156 18.9641 106.156 21.4947V37.3843C106.156 39.9149 105.498 41.8422 104.18 43.1663C102.892 44.461 100.989 45.1084 98.4715 45.1084H87.9331ZM98.2519 41.3567C99.4517 41.3567 100.374 41.033 101.018 40.3857C101.663 39.7383 101.985 38.8114 101.985 37.605V21.274C101.985 20.0676 101.663 19.1407 101.018 18.4933C100.374 17.8459 99.4517 17.5222 98.2519 17.5222H88.1527C86.9528 17.5222 86.0307 17.8459 85.3864 18.4933C84.7422 19.1407 84.4204 20.0676 84.4204 21.274V37.605C84.4204 38.8114 84.7422 39.7383 85.3864 40.3857C86.0307 41.033 86.9528 41.3567 88.1527 41.3567H98.2519ZM121.724 45.1084C119.089 45.1084 117.186 44.52 116.015 43.3429C114.844 42.1659 114.259 40.2533 114.259 37.605V35.8395C114.259 35.3981 114.478 35.1774 114.917 35.1774H117.772C118.211 35.1774 118.43 35.3981 118.43 35.8395V37.8257C118.43 39.0321 118.708 39.9296 119.264 40.5181C119.85 41.0772 120.743 41.3567 121.943 41.3567H130.725C131.925 41.3567 132.803 41.0772 133.359 40.5181C133.945 39.9296 134.237 39.0321 134.237 37.8257V34.9567C134.237 33.7503 133.945 32.8675 133.359 32.3084C132.803 31.72 131.925 31.4257 130.725 31.4257H121.943C119.309 31.4257 117.406 30.8372 116.235 29.6602C115.064 28.4831 114.478 26.5705 114.478 23.9222V21.274C114.478 18.6257 115.064 16.713 116.235 15.5361C117.406 14.359 119.309 13.7705 121.943 13.7705H130.725C133.359 13.7705 135.262 14.359 136.433 15.5361C137.604 16.713 138.19 18.6257 138.19 21.274V23.0395C138.19 23.4809 137.97 23.7015 137.531 23.7015H134.677C134.237 23.7015 134.018 23.4809 134.018 23.0395V21.0533C134.018 19.8469 133.725 18.9641 133.14 18.405C132.584 17.8165 131.705 17.5222 130.506 17.5222H122.162C120.962 17.5222 120.069 17.8165 119.484 18.405C118.928 18.9641 118.65 19.8469 118.65 21.0533V24.1429C118.65 25.3494 118.928 26.2469 119.484 26.8354C120.069 27.3944 120.962 27.674 122.162 27.674H130.945C133.579 27.674 135.482 28.2624 136.653 29.4395C137.824 30.6165 138.409 32.5291 138.409 35.1774V37.605C138.409 40.2533 137.824 42.1659 136.653 43.3429C135.482 44.52 133.579 45.1084 130.945 45.1084H121.724Z" fill="white"/>
<path d="M6.32061 50.4746H7.12046V55.6485H6.23174V52.0268L4.48391 54.6581H3.9803L2.23247 52.0268V55.6485H1.34375V50.4746H2.18063L4.25432 53.6603L6.32061 50.4746ZM9.46225 55.6485C8.98827 55.6485 8.64021 55.5377 8.41803 55.3159C8.19585 55.0942 8.08475 54.7468 8.08475 54.2737V50.4746H9.0327V54.0963C9.0327 54.3673 9.08707 54.5595 9.19564 54.6729C9.30925 54.7812 9.50181 54.8355 9.77331 54.8355H11.2841C11.5607 54.8355 11.7532 54.7812 11.8618 54.6729C11.9705 54.5644 12.0247 54.3723 12.0247 54.0963V50.4746H12.9727V54.2737C12.9727 54.7468 12.8616 55.0942 12.6394 55.3159C12.4173 55.5377 12.0692 55.6485 11.5952 55.6485H9.46225ZM14.8941 54.8059H17.8861V55.6485H13.9461V50.4746H14.8941V54.8059ZM21.8841 50.4746V51.3172H19.9733V55.6485H19.0254V51.3172H17.1146V50.4746H21.8841ZM22.5861 50.4746H23.5489V55.6485H22.5861V50.4746ZM31.0984 52.9359C31.5082 53.0394 31.7131 53.3547 31.7131 53.882V54.599C31.7131 54.9586 31.6267 55.2247 31.4539 55.3972C31.2811 55.5647 31.017 55.6485 30.6615 55.6485H26.8992V50.4746H30.5134C30.8689 50.4746 31.133 50.5608 31.3058 50.7333C31.4786 50.9008 31.565 51.1644 31.565 51.5242V52.0342C31.565 52.4973 31.4095 52.7979 31.0984 52.9359ZM27.8472 51.2137V52.6329H30.1134C30.301 52.6329 30.4319 52.5959 30.506 52.522C30.58 52.4481 30.617 52.3175 30.617 52.1303V51.7163C30.617 51.529 30.58 51.3985 30.506 51.3246C30.4319 51.2507 30.301 51.2137 30.1134 51.2137H27.8472ZM30.7652 54.4068V53.7933C30.7652 53.606 30.7281 53.4755 30.6541 53.4016C30.58 53.3277 30.4491 53.2907 30.2616 53.2907H27.8472V54.9094H30.2616C30.4491 54.9094 30.58 54.8724 30.6541 54.7985C30.7281 54.7246 30.7652 54.594 30.7652 54.4068ZM37.5766 55.6485H36.5176L35.1623 53.712H33.5626V55.6485H32.6146V50.4746H36.125C36.5596 50.4746 36.8731 50.5707 37.0656 50.7629C37.2582 50.9501 37.3545 51.263 37.3545 51.7016V52.4259C37.3545 52.8595 37.2607 53.1724 37.073 53.3646C36.8854 53.5518 36.5768 53.6479 36.1473 53.6529L37.5766 55.6485ZM33.5626 51.199V53.0024H35.777C36.0189 53.0024 36.1843 52.9605 36.2732 52.8768C36.362 52.7881 36.4065 52.623 36.4065 52.3816V51.8198C36.4065 51.5783 36.362 51.4157 36.2732 51.332C36.1843 51.2433 36.0189 51.199 35.777 51.199H33.5626ZM42.5986 55.6485L42.095 54.5029H39.2881L38.7919 55.6485H37.7847L40.1991 50.4746H41.2433L43.6503 55.6485H42.5986ZM39.6066 53.7859H41.784L40.6953 51.2877L39.6066 53.7859ZM48.3223 50.4746H49.2406V55.6485H48.4852L45.1229 51.8346V55.6485H44.2045V50.4746H45.0044L48.3223 54.2294V50.4746ZM51.5707 55.6485C51.0967 55.6485 50.7486 55.5377 50.5264 55.3159C50.3042 55.0942 50.1931 54.7468 50.1931 54.2737V51.8494C50.1931 51.3763 50.3042 51.029 50.5264 50.8072C50.7486 50.5855 51.0967 50.4746 51.5707 50.4746H53.748C54.222 50.4746 54.5701 50.5855 54.7923 50.8072C55.0145 51.029 55.1256 51.3763 55.1256 51.8494V52.3964H54.2072V52.012C54.2072 51.741 54.1504 51.5512 54.0369 51.4429C53.9282 51.3295 53.7382 51.2729 53.4666 51.2729H51.8817C51.6101 51.2729 51.4176 51.3295 51.304 51.4429C51.1954 51.5512 51.1411 51.741 51.1411 52.012V54.1111C51.1411 54.3821 51.1954 54.5743 51.304 54.6877C51.4176 54.796 51.6101 54.8503 51.8817 54.8503H53.4666C53.7382 54.8503 53.9282 54.796 54.0369 54.6877C54.1504 54.5743 54.2072 54.3821 54.2072 54.1111V53.6603H55.1256V54.2737C55.1256 54.7468 55.0145 55.0942 54.7923 55.3159C54.5701 55.5377 54.222 55.6485 53.748 55.6485H51.5707ZM59.9947 50.4746H60.9427V55.6485H59.9947V53.3646H57.0027V55.6485H56.0547V50.4746H57.0027V52.522H59.9947V50.4746ZM65.5707 55.6485C65.0967 55.6485 64.7486 55.5377 64.5264 55.3159C64.3043 55.0942 64.1932 54.7468 64.1932 54.2737V51.8494C64.1932 51.3763 64.3043 51.029 64.5264 50.8072C64.7486 50.5855 65.0967 50.4746 65.5707 50.4746H67.9258C68.3998 50.4746 68.7479 50.5855 68.9701 50.8072C69.1922 51.029 69.3033 51.3763 69.3033 51.8494V54.2737C69.3033 54.7468 69.1922 55.0942 68.9701 55.3159C68.7479 55.5377 68.3998 55.6485 67.9258 55.6485H65.5707ZM65.8817 54.8355H67.6147C67.8863 54.8355 68.0764 54.7812 68.185 54.6729C68.2985 54.5595 68.3554 54.3673 68.3554 54.0963V52.0268C68.3554 51.7557 68.2985 51.566 68.185 51.4577C68.0764 51.3443 67.8863 51.2877 67.6147 51.2877H65.8817C65.6102 51.2877 65.4176 51.3418 65.3041 51.4503C65.1954 51.5586 65.1411 51.7508 65.1411 52.0268V54.0963C65.1411 54.3723 65.1954 54.5644 65.3041 54.6729C65.4176 54.7812 65.6102 54.8355 65.8817 54.8355ZM74.375 50.4746H75.2933V55.6485H74.5379L71.1756 51.8346V55.6485H70.2572V50.4746H71.0571L74.375 54.2294V50.4746ZM77.2606 54.8059H80.2526V55.6485H76.3126V50.4746H77.2606V54.8059ZM80.9584 50.4746H81.9212V55.6485H80.9584V50.4746ZM87.0949 50.4746H88.0136V55.6485H87.2582L83.8955 51.8346V55.6485H82.9771V50.4746H83.777L87.0949 54.2294V50.4746ZM89.9801 54.8577H93.3425V55.6485H89.0322V50.4746H93.2684V51.2655H89.9801V52.5959H92.9722V53.3277H89.9801V54.8577ZM96.3537 54.599V54.1333H97.272V54.3994C97.272 54.5866 97.3086 54.7172 97.3827 54.7911C97.4567 54.865 97.5883 54.902 97.7756 54.902H99.8641C100.047 54.902 100.175 54.865 100.249 54.7911C100.329 54.7123 100.368 54.5817 100.368 54.3994V53.9781C100.368 53.7957 100.33 53.6725 100.256 53.6085C100.187 53.5395 100.057 53.4951 99.8641 53.4755L97.4794 53.2463C97.1091 53.2168 96.8399 53.1231 96.6717 52.9655C96.5088 52.8077 96.4277 52.5516 96.4277 52.1968V51.5242C96.4277 51.1644 96.5114 50.9008 96.6795 50.7333C96.8521 50.5608 97.1187 50.4746 97.4794 50.4746H100.16C100.516 50.4746 100.78 50.5608 100.952 50.7333C101.126 50.9008 101.212 51.1644 101.212 51.5242V51.8863H100.294V51.7237C100.294 51.5414 100.254 51.4133 100.175 51.3394C100.101 51.2605 99.9731 51.2211 99.7901 51.2211H97.8793C97.692 51.2211 97.5604 51.2581 97.4864 51.332C97.4123 51.4059 97.3757 51.5364 97.3757 51.7237V51.975C97.3757 52.1573 97.4106 52.283 97.4794 52.352C97.5535 52.416 97.6868 52.4579 97.8793 52.4777L100.264 52.6994C100.634 52.7338 100.901 52.8299 101.064 52.9877C101.232 53.1403 101.316 53.3942 101.316 53.749V54.599C101.316 54.9586 101.229 55.2247 101.056 55.3972C100.884 55.5647 100.62 55.6485 100.264 55.6485H97.4053C97.0446 55.6485 96.778 55.5647 96.6055 55.3972C96.4373 55.2247 96.3537 54.9586 96.3537 54.599ZM103.213 54.8577H106.576V55.6485H102.265V50.4746H106.502V51.2655H103.213V52.5959H106.205V53.3277H103.213V54.8577ZM112.321 55.6485H111.262L109.907 53.712H108.307V55.6485H107.359V50.4746H110.87C111.304 50.4746 111.618 50.5707 111.811 50.7629C112.003 50.9501 112.099 51.263 112.099 51.7016V52.4259C112.099 52.8595 112.006 53.1724 111.817 53.3646C111.63 53.5518 111.322 53.6479 110.892 53.6529L112.321 55.6485ZM108.307 51.199V53.0024H110.522C110.763 53.0024 110.929 52.9605 111.018 52.8768C111.107 52.7881 111.151 52.623 111.151 52.3816V51.8198C111.151 51.5783 111.107 51.4157 111.018 51.332C110.929 51.2433 110.763 51.199 110.522 51.199H108.307ZM117.044 50.4746H118.036L115.666 55.6485H114.748L112.378 50.4746H113.422L115.236 54.6285L117.044 50.4746ZM118.668 50.4746H119.63V55.6485H118.668V50.4746ZM121.998 55.6485C121.524 55.6485 121.175 55.5377 120.953 55.3159C120.731 55.0942 120.62 54.7468 120.62 54.2737V51.8494C120.62 51.3763 120.731 51.029 120.953 50.8072C121.175 50.5855 121.524 50.4746 121.998 50.4746H124.175C124.649 50.4746 124.997 50.5855 125.219 50.8072C125.441 51.029 125.553 51.3763 125.553 51.8494V52.3964H124.634V52.012C124.634 51.741 124.578 51.5512 124.464 51.4429C124.355 51.3295 124.165 51.2729 123.894 51.2729H122.309C122.037 51.2729 121.844 51.3295 121.731 51.4429C121.622 51.5512 121.568 51.741 121.568 52.012V54.1111C121.568 54.3821 121.622 54.5743 121.731 54.6877C121.844 54.796 122.037 54.8503 122.309 54.8503H123.894C124.165 54.8503 124.355 54.796 124.464 54.6877C124.578 54.5743 124.634 54.3821 124.634 54.1111V53.6603H125.553V54.2737C125.553 54.7468 125.441 55.0942 125.219 55.3159C124.997 55.5377 124.649 55.6485 124.175 55.6485H121.998ZM127.429 54.8577H130.792V55.6485H126.481V50.4746H130.718V51.2655H127.429V52.5959H130.421V53.3277H127.429V54.8577ZM131.508 54.599V54.1333H132.426V54.3994C132.426 54.5866 132.464 54.7172 132.538 54.7911C132.612 54.865 132.743 54.902 132.93 54.902H135.018C135.201 54.902 135.329 54.865 135.404 54.7911C135.483 54.7123 135.522 54.5817 135.522 54.3994V53.9781C135.522 53.7957 135.485 53.6725 135.411 53.6085C135.343 53.5395 135.211 53.4951 135.018 53.4755L132.634 53.2463C132.263 53.2168 131.995 53.1231 131.827 52.9655C131.664 52.8077 131.582 52.5516 131.582 52.1968V51.5242C131.582 51.1644 131.667 50.9008 131.834 50.7333C132.007 50.5608 132.274 50.4746 132.634 50.4746H135.315C135.67 50.4746 135.935 50.5608 136.108 50.7333C136.28 50.9008 136.366 51.1644 136.366 51.5242V51.8863H135.448V51.7237C135.448 51.5414 135.409 51.4133 135.329 51.3394C135.255 51.2605 135.127 51.2211 134.944 51.2211H133.034C132.846 51.2211 132.716 51.2581 132.642 51.332C132.567 51.4059 132.53 51.5364 132.53 51.7237V51.975C132.53 52.1573 132.565 52.283 132.634 52.352C132.708 52.416 132.841 52.4579 133.034 52.4777L135.418 52.6994C135.789 52.7338 136.055 52.8299 136.218 52.9877C136.386 53.1403 136.47 53.3942 136.47 53.749V54.599C136.47 54.9586 136.384 55.2247 136.211 55.3972C136.039 55.5647 135.774 55.6485 135.418 55.6485H132.56C132.2 55.6485 131.933 55.5647 131.76 55.3972C131.592 55.2247 131.508 54.9586 131.508 54.599Z" fill="white"/>
</g>
<defs>
<clipPath id="clip0_486_3006">
<rect width="139" height="60" fill="white"/>
</clipPath>
</defs>
</svg>
