<svg width="61" height="61" viewBox="0 0 61 61" fill="none" xmlns="http://www.w3.org/2000/svg">
<rect width="61" height="61" rx="12" fill="#282828"/>
<g clip-path="url(#clip0_486_1561)">
<path d="M29.3486 12.9314C29.273 12.9382 29.0324 12.9623 28.8158 12.9794C23.8226 13.4296 19.1454 16.1239 16.183 20.265C14.5336 22.5675 13.4784 25.1793 13.0799 27.9459C12.9391 28.9117 12.9219 29.197 12.9219 30.5062C12.9219 31.8156 12.9391 32.1009 13.0801 33.0664C14.0353 39.6681 18.7332 45.2148 25.1046 47.2699C26.2456 47.6376 27.4483 47.8885 28.816 48.0397C29.3488 48.098 31.6512 48.098 32.184 48.0397C34.5449 47.7784 36.5449 47.1943 38.5176 46.1873C38.8199 46.0328 38.8784 45.9915 38.8371 45.9572C38.8097 45.9364 37.5209 44.2078 35.9745 42.1185L33.1634 38.3211L29.6408 33.1077C27.7026 30.2416 26.1081 27.8978 26.0942 27.8978C26.0805 27.8944 26.0668 30.2107 26.0599 33.039C26.0496 37.9911 26.0462 38.1905 25.9844 38.3072C25.8951 38.4756 25.8263 38.5443 25.6818 38.6201C25.572 38.6749 25.4756 38.6853 24.9567 38.6853H24.3622L24.204 38.5856C24.1061 38.5243 24.0265 38.4376 23.9738 38.3348L23.9017 38.1801L23.9087 31.2898L23.9189 24.396L24.0254 24.2619C24.0805 24.1898 24.1974 24.097 24.2798 24.0524C24.4206 23.9836 24.4756 23.9768 25.0701 23.9768C25.7713 23.9768 25.888 24.0042 26.0703 24.2035C26.1218 24.2586 28.029 27.1315 30.311 30.5921C32.6213 34.0949 34.9329 37.5968 37.246 41.0977L40.0296 45.3145L40.1706 45.2217C41.418 44.4106 42.7377 43.2559 43.7824 42.0531C46.0058 39.4997 47.439 36.3862 47.9201 33.0664C48.0609 32.1009 48.0781 31.8156 48.0781 30.5062C48.0781 29.1968 48.0609 28.9117 47.9201 27.9459C46.9647 21.3443 42.2668 15.7977 35.8954 13.7426C34.7717 13.3782 33.5758 13.1274 32.2355 12.9762C31.9055 12.9418 29.6339 12.9041 29.3488 12.9316M36.5449 23.5644C36.7098 23.6468 36.8439 23.8049 36.8921 23.9698C36.9195 24.0592 36.9264 25.97 36.9195 30.2759L36.9092 36.455L35.8198 34.7847L34.727 33.1146V28.623C34.727 25.7191 34.7407 24.0866 34.7613 24.0075C34.8163 23.8152 34.9365 23.6641 35.1016 23.5746C35.2424 23.5025 35.2941 23.4955 35.8336 23.4955C36.3423 23.4955 36.4316 23.5025 36.5449 23.5644Z" fill="white"/>
</g>
<defs>
<clipPath id="clip0_486_1561">
<rect width="45" height="45" fill="white" transform="translate(8 8)"/>
</clipPath>
</defs>
</svg>
