<svg width="61" height="61" viewBox="0 0 61 61" fill="none" xmlns="http://www.w3.org/2000/svg">
<rect width="61" height="61" rx="12" fill="#282828"/>
<g clip-path="url(#clip0_486_1545)">
<path d="M29.0722 13.4696C29.9369 12.9748 31.063 12.9725 31.9268 13.4696C36.2724 15.9253 40.6195 18.3769 44.9644 20.834C45.7818 21.2944 46.3283 22.2039 46.3201 23.1455V37.919C46.3262 38.8997 45.7256 39.831 44.8634 40.2808C40.5319 42.723 36.2026 45.1679 31.8719 47.61C30.9897 48.1145 29.8409 48.0757 28.9859 47.5297C27.6874 46.777 26.3867 46.0278 25.088 45.2758C24.8225 45.1176 24.5234 44.9918 24.336 44.7344C24.5017 44.5112 24.7979 44.4834 25.0386 44.3859C25.5805 44.2134 26.0785 43.9367 26.5763 43.6683C26.7024 43.5822 26.856 43.6152 26.9767 43.6922C28.0872 44.3289 29.1879 44.9842 30.302 45.6147C30.5397 45.752 30.7803 45.5697 30.9835 45.4565C35.2339 43.0541 39.4896 40.6611 43.7394 38.258C43.8969 38.1822 43.9839 38.015 43.9711 37.8426C43.9741 32.969 43.9718 28.0948 43.9727 23.2211C43.9906 23.0256 43.8774 22.8456 43.7004 22.7655C39.3841 20.3346 35.0697 17.9002 30.7541 15.4688C30.6793 15.4174 30.5908 15.3898 30.5001 15.3897C30.4094 15.3895 30.3207 15.4168 30.2458 15.4679C25.93 17.9002 21.6167 20.3371 17.3009 22.7676C17.1246 22.8479 17.0063 23.0249 17.0272 23.2211C17.0281 28.0948 17.0272 32.969 17.0272 37.8433C17.0196 37.9275 17.0381 38.012 17.0801 38.0853C17.1221 38.1587 17.1856 38.2174 17.262 38.2536C18.4136 38.9066 19.5667 39.555 20.7191 40.206C21.3684 40.5552 22.1654 40.763 22.8809 40.4953C23.5119 40.2689 23.9544 39.6247 23.9424 38.9546C23.9484 34.1095 23.9394 29.2638 23.9468 24.4192C23.931 24.2042 24.1351 24.0265 24.3442 24.0469C24.8976 24.0431 25.4517 24.0394 26.005 24.0483C26.236 24.043 26.3949 24.2747 26.3664 24.4913C26.3642 29.3671 26.3724 34.2429 26.3627 39.1186C26.3642 40.4181 25.8303 41.8321 24.6283 42.4679C23.1477 43.2348 21.3175 43.0722 19.8546 42.3368C18.5883 41.7047 17.3796 40.9587 16.1358 40.2815C15.2713 39.8342 14.6736 38.8992 14.6798 37.9192V23.1455C14.6707 22.1843 15.2391 21.2583 16.0817 20.8046C20.4124 18.3607 24.7424 15.9147 29.0722 13.4696Z" fill="#81CD39"/>
<path d="M32.8504 23.7035C34.7392 23.5818 36.7612 23.6314 38.4609 24.562C39.7769 25.2749 40.5064 26.7715 40.5296 28.2335C40.4929 28.4306 40.2867 28.5394 40.0984 28.5258C39.5505 28.5251 39.0023 28.5334 38.4544 28.5222C38.2218 28.5311 38.0868 28.3168 38.0576 28.1114C37.9001 27.4117 37.5185 26.719 36.8602 26.3815C35.8495 25.8756 34.6777 25.9011 33.5755 25.9116C32.771 25.9542 31.9058 26.0239 31.2241 26.497C30.7008 26.8554 30.5419 27.5789 30.7286 28.1616C30.9047 28.58 31.3876 28.715 31.7829 28.8394C34.0591 29.4348 36.4712 29.3754 38.704 30.1589C39.6284 30.4782 40.5326 31.0993 40.849 32.0671C41.263 33.3644 41.0816 34.9148 40.1586 35.9561C39.4101 36.8131 38.3201 37.2796 37.2328 37.5329C35.7865 37.8554 34.2855 37.8637 32.8167 37.7204C31.4356 37.5629 29.9982 37.2001 28.9321 36.2592C28.0203 35.4674 27.5751 34.2338 27.6192 33.0434C27.6297 32.8423 27.83 32.7021 28.0226 32.7186C28.5744 32.7142 29.1263 32.7126 29.6781 32.7195C29.8987 32.7036 30.062 32.8942 30.0735 33.102C30.1751 33.7683 30.4255 34.468 31.0069 34.8629C32.1283 35.5866 33.5358 35.5371 34.8201 35.5573C35.8841 35.5102 37.0785 35.4959 37.9467 34.7926C38.4048 34.3915 38.5405 33.7204 38.4167 33.1431C38.2826 32.6556 37.7727 32.4285 37.3348 32.28C35.0878 31.5693 32.6487 31.8272 30.4234 31.0233C29.5199 30.7041 28.6463 30.1005 28.2993 29.1724C27.815 27.8588 28.0369 26.2338 29.0566 25.2278C30.0508 24.2268 31.4859 23.8413 32.8504 23.7035Z" fill="#81CD39"/>
</g>
<defs>
<clipPath id="clip0_486_1545">
<rect width="45" height="45" fill="white" transform="translate(8 8)"/>
</clipPath>
</defs>
</svg>
