<svg width="61" height="61" viewBox="0 0 61 61" fill="none" xmlns="http://www.w3.org/2000/svg">
<rect width="61" height="61" rx="12" fill="#282828"/>
<path d="M24.1251 19.7188C23.5626 19.7188 23.0001 19.7188 22.419 19.7377C21.8375 19.7564 21.2936 19.7564 20.7874 19.7754C20.2811 19.794 19.8125 19.794 19.3625 19.8126C18.9311 19.8312 18.6313 19.8312 18.3124 19.8312C18.1813 19.8312 18.125 19.9061 18.125 20.0376V39.3314C18.125 39.5001 18.1999 39.5754 18.35 39.5754H21.9876C22.1187 39.5564 22.2126 39.4439 22.1936 39.3127V33.294C22.5498 33.294 22.8124 33.294 23.0001 33.3126C23.1875 33.3313 23.4874 33.3313 23.9374 33.3313C25.4751 33.3313 26.8814 33.1625 28.1561 32.6939C29.375 32.2439 30.4251 31.4564 31.175 30.4063C31.925 29.3563 32.3 28.025 32.3 26.4125C32.3 25.5688 32.1502 24.7626 31.869 23.9751C31.571 23.1728 31.1041 22.4439 30.5 21.8376C29.787 21.1449 28.9287 20.6196 27.9874 20.2999C26.9373 19.9061 25.6625 19.7188 24.1251 19.7188ZM24.5435 23.4119C25.2114 23.4246 25.8618 23.5413 26.4686 23.7874C27.0125 23.9937 27.4625 24.3689 27.7814 24.8561C28.0804 25.3604 28.23 25.9393 28.2127 26.5254C28.2127 27.3501 28.025 27.9879 27.6313 28.4565C27.2185 28.9251 26.6936 29.2816 26.0939 29.4504C25.3999 29.6754 24.6686 29.7875 23.9374 29.7875H22.9435C22.7185 29.7875 22.4752 29.7689 22.2126 29.7502V23.4502C22.3437 23.4312 22.6064 23.4126 22.9815 23.4316C23.3376 23.4126 23.7686 23.4126 24.2563 23.4126C24.3523 23.4103 24.4481 23.41 24.5435 23.4119ZM40.2689 24.3692C38.9375 24.3692 37.8311 24.5752 36.9501 25.0252C36.144 25.4004 35.45 26.0001 34.9814 26.75C34.569 27.444 34.3436 28.2125 34.3436 29.019C34.3276 29.6823 34.4758 30.3393 34.775 30.9315C35.1257 31.5621 35.6126 32.1065 36.2002 32.5251C37.025 33.0893 37.9201 33.5431 38.8626 33.8751C39.7813 34.2312 40.4 34.5125 40.7002 34.7561C41.0001 35.0001 41.1502 35.2437 41.1502 35.5064C41.1502 35.8439 40.9439 36.1627 40.644 36.2939C40.3065 36.4626 39.8002 36.5565 39.0876 36.5565C38.3377 36.5565 37.5875 36.4626 36.8749 36.2752C36.0567 36.0925 35.2721 35.7825 34.55 35.3566C34.4937 35.319 34.4375 35.3004 34.3813 35.338C34.325 35.3752 34.3064 35.4501 34.3064 35.5064V38.7689C34.2877 38.919 34.3813 39.0501 34.5127 39.125C35.1208 39.4091 35.7639 39.6109 36.4252 39.7251C37.269 39.8939 38.1124 39.9688 38.9748 39.9688C40.3248 39.9688 41.4501 39.7627 42.3688 39.369C43.2125 39.0315 43.9438 38.4504 44.4686 37.7001C44.9602 36.9626 45.2153 36.0927 45.1999 35.2065C45.2184 34.537 45.0703 33.8734 44.7689 33.2754C44.4124 32.6376 43.9061 32.1127 43.2874 31.719C42.3822 31.1505 41.413 30.691 40.4 30.35C39.9476 30.1628 39.5034 29.9563 39.0686 29.7312C38.825 29.6001 38.6 29.4314 38.4312 29.225C38.3187 29.0749 38.2439 28.9065 38.2439 28.7377C38.2439 28.569 38.3001 28.3816 38.3936 28.2315C38.5251 28.0441 38.7311 27.9126 38.9748 27.8564C39.3313 27.7629 39.725 27.7062 40.0998 27.7249C40.8124 27.7249 41.506 27.8187 42.2 27.9689C42.8377 28.1 43.4375 28.3064 44 28.6066C44.0749 28.6439 44.1687 28.6439 44.3375 28.6066C44.3668 28.5849 44.3906 28.5566 44.4069 28.524C44.4232 28.4913 44.4316 28.4553 44.4314 28.4189V25.3627C44.4314 25.2875 44.4124 25.2126 44.3938 25.1377C44.3561 25.0629 44.2812 24.9876 44.2064 24.969C43.6892 24.7576 43.1474 24.6127 42.5938 24.5376C41.8239 24.4255 41.0469 24.3695 40.2689 24.3692Z" fill="#31A8FF"/>
</svg>
