<svg width="61" height="61" viewBox="0 0 61 61" fill="none" xmlns="http://www.w3.org/2000/svg">
<rect width="61" height="61" rx="12" fill="#282828"/>
<path d="M30.5 34.5078C32.7135 34.5078 34.5078 32.7135 34.5078 30.5C34.5078 28.2865 32.7135 26.4922 30.5 26.4922C28.2865 26.4922 26.4922 28.2865 26.4922 30.5C26.4922 32.7135 28.2865 34.5078 30.5 34.5078Z" fill="#61DAFB"/>
<path d="M45.7227 23.8906C44.9492 23.6094 44.1406 23.3281 43.2969 23.082C43.5078 22.2383 43.6836 21.3945 43.8242 20.5859C44.5625 15.9453 43.7539 12.6758 41.5039 11.4102C40.8359 11.0234 40.0977 10.8477 39.2539 10.8477C36.793 10.8477 33.6641 12.6758 30.5 15.7344C27.3359 12.6758 24.207 10.8477 21.7461 10.8477C20.9023 10.8477 20.1641 11.0234 19.4961 11.4102C17.2461 12.7109 16.4375 15.9805 17.1758 20.5859C17.3164 21.3945 17.4922 22.2383 17.7031 23.082C16.8594 23.3281 16.0508 23.5742 15.2773 23.8906C10.8828 25.5781 8.49219 27.8984 8.49219 30.5C8.49219 33.1016 10.918 35.4219 15.2773 37.1094C16.0508 37.3906 16.8594 37.6719 17.7031 37.918C17.4922 38.7617 17.3164 39.6055 17.1758 40.4141C16.4375 45.0547 17.2461 48.3242 19.4961 49.5898C20.1641 49.9766 20.9023 50.1523 21.7461 50.1523C24.2422 50.1523 27.3711 48.3242 30.5 45.2656C33.6641 48.3242 36.793 50.1523 39.2539 50.1523C40.0977 50.1523 40.8359 49.9766 41.5039 49.5898C43.7539 48.2891 44.5625 45.0195 43.8242 40.4141C43.6836 39.6055 43.5078 38.7617 43.2969 37.918C44.1406 37.6719 44.9492 37.4258 45.7227 37.1094C50.1172 35.4219 52.5078 33.1016 52.5078 30.5C52.5078 27.8984 50.1172 25.5781 45.7227 23.8906ZM40.5195 13.168C41.9609 14.0117 42.4531 16.6133 41.8555 20.3047C41.75 21.043 41.5742 21.8164 41.3633 22.625C39.5352 22.2031 37.6016 21.9219 35.5625 21.7461C34.3672 20.0586 33.1367 18.5469 31.9062 17.1758C34.5078 14.6094 37.1445 12.8516 39.2891 12.8516C39.7461 12.8516 40.168 12.957 40.5195 13.168ZM36.582 34.0156C35.9492 35.1406 35.2109 36.2656 34.4375 37.3906C33.1367 37.4961 31.8359 37.5312 30.5 37.5312C29.1289 37.5312 27.8281 37.4961 26.5625 37.3906C25.7891 36.2656 25.0859 35.1406 24.4531 34.0156C23.7852 32.8555 23.1523 31.6602 22.5898 30.5C23.1523 29.3398 23.7852 28.1445 24.4531 26.9844C25.0859 25.8594 25.8242 24.7344 26.5977 23.6094C27.8984 23.5039 29.1992 23.4688 30.5352 23.4688C31.9062 23.4688 33.207 23.5039 34.4727 23.6094C35.2461 24.7344 35.9492 25.8594 36.582 26.9844C37.25 28.1445 37.8828 29.3398 38.4453 30.5C37.8477 31.6602 37.25 32.8203 36.582 34.0156ZM39.5 32.8555C40.0273 34.0859 40.4492 35.2812 40.8359 36.4766C39.6406 36.7578 38.375 36.9688 37.0391 37.1445C37.4609 36.4766 37.918 35.7734 38.3047 35.0352C38.7266 34.2969 39.1133 33.5586 39.5 32.8555ZM30.5 42.3828C29.6562 41.4688 28.8477 40.4844 28.0742 39.4648C28.8828 39.5 29.6914 39.5352 30.5 39.5352C31.3086 39.5352 32.1172 39.5 32.9258 39.4648C32.1523 40.4844 31.3438 41.4688 30.5 42.3828ZM23.9609 37.1094C22.625 36.9336 21.3594 36.7227 20.1641 36.4414C20.5508 35.2813 20.9727 34.0508 21.5 32.8203C21.8867 33.5234 22.2734 34.2617 22.6953 34.9648C23.1172 35.7383 23.5391 36.4063 23.9609 37.1094ZM21.5 28.1445C20.9727 26.9141 20.5508 25.7188 20.1641 24.5234C21.3594 24.2422 22.625 24.0312 23.9609 23.8555C23.5391 24.5234 23.082 25.2266 22.6953 25.9648C22.2734 26.7031 21.8867 27.4414 21.5 28.1445ZM30.5 18.6172C31.3438 19.5312 32.1523 20.5156 32.9258 21.5352C32.1172 21.5 31.3086 21.4648 30.5 21.4648C29.6914 21.4648 28.8828 21.5 28.0742 21.5352C28.8477 20.5156 29.6562 19.5312 30.5 18.6172ZM38.3047 26L37.0391 23.8906C38.375 24.0664 39.6406 24.2773 40.8359 24.5586C40.4492 25.7188 40.0273 26.9492 39.5 28.1797C39.1133 27.4414 38.7266 26.7031 38.3047 26ZM19.1445 20.3047C18.5469 16.6133 19.0391 14.0117 20.4805 13.168C20.832 12.957 21.2539 12.8516 21.7109 12.8516C23.8203 12.8516 26.457 14.5742 29.0938 17.1758C27.8633 18.5117 26.6328 20.0586 25.4375 21.7461C23.3984 21.9219 21.4648 22.2383 19.6367 22.625C19.4258 21.8164 19.2852 21.043 19.1445 20.3047ZM10.4609 30.5C10.4609 28.8477 12.4648 27.0898 15.9805 25.7891C16.6836 25.5078 17.457 25.2617 18.2305 25.0508C18.793 26.8086 19.4961 28.6719 20.3398 30.5352C19.4961 32.3984 18.7578 34.2266 18.2305 35.9844C13.3789 34.5781 10.4609 32.4688 10.4609 30.5ZM20.4805 47.832C19.0391 46.9883 18.5469 44.3867 19.1445 40.6953C19.25 39.957 19.4258 39.1836 19.6367 38.375C21.4648 38.7969 23.3984 39.0781 25.4375 39.2539C26.6328 40.9414 27.8633 42.4531 29.0938 43.8242C26.4922 46.3906 23.8555 48.1484 21.7109 48.1484C21.2539 48.1484 20.832 48.043 20.4805 47.832ZM41.8555 40.6953C42.4531 44.3867 41.9609 46.9883 40.5195 47.832C40.168 48.043 39.7461 48.1484 39.2891 48.1484C37.1797 48.1484 34.543 46.4258 31.9062 43.8242C33.1367 42.4883 34.3672 40.9414 35.5625 39.2539C37.6016 39.0781 39.5352 38.7617 41.3633 38.375C41.5742 39.1836 41.7148 39.957 41.8555 40.6953ZM45.0195 35.2109C44.3164 35.4922 43.543 35.7383 42.7695 35.9492C42.207 34.1914 41.5039 32.3281 40.6602 30.4648C41.5039 28.6016 42.2422 26.7734 42.7695 25.0156C47.6211 26.4219 50.5391 28.5312 50.5391 30.5C50.5391 32.1523 48.5 33.9102 45.0195 35.2109Z" fill="#61DAFB"/>
</svg>
