<svg width="421" height="374" viewBox="0 0 421 374" fill="none" xmlns="http://www.w3.org/2000/svg">
<path d="M170.06 59.0894C174.524 59.0894 178.143 55.4695 178.143 51.0043C178.143 46.5392 174.524 42.9194 170.06 42.9194C165.596 42.9194 161.977 46.5392 161.977 51.0043C161.977 55.4695 165.596 59.0894 170.06 59.0894Z" fill="white"/>
<path d="M250.943 42.9489C255.387 43.292 258.713 47.1704 258.37 51.6156C258.027 56.0608 254.149 59.3874 249.705 59.0441C245.261 58.7012 241.935 54.8227 242.278 50.3775C242.621 45.9323 246.499 42.6058 250.943 42.9489Z" fill="white"/>
<path d="M282.071 44.9927C285.396 45.2463 287.872 48.1551 287.619 51.4666C287.365 54.793 284.457 57.2693 281.146 57.0156C277.82 56.7621 275.344 53.8682 275.598 50.5418C275.852 47.2153 278.745 44.7391 282.071 44.9927Z" fill="white"/>
<path d="M140.063 44.9927C143.389 45.2463 145.864 48.1551 145.61 51.4666C145.357 54.793 142.449 57.2693 139.138 57.0156C135.812 56.7621 133.336 53.8682 133.59 50.5418C133.843 47.2153 136.752 44.7391 140.063 44.9927Z" fill="white"/>
<path d="M205.951 42.0243L210.097 36.1172L213.929 42.2331L221.044 40.995L219.418 48.0357L225.324 52.1826L219.209 56.0162L220.447 63.1166L213.423 61.5058L209.261 67.4124L205.429 61.2969L198.329 62.5348L199.94 55.509L194.034 51.3472L200.149 47.5136L198.911 40.4133L205.951 42.0243Z" fill="white"/>
<path d="M385.63 151.647C400.559 141.265 411.998 127.84 415.025 109.388C417.591 93.8297 413.266 74.8409 413.266 74.8409C413.266 74.8409 396.398 104.077 345.109 130.242C328.33 138.804 308.674 144.502 296.489 147.545C295.937 145.89 295.356 144.278 294.774 142.757C302.858 139.967 314.326 135.88 325.422 131.45C336.712 126.945 375.757 105.331 388.24 82.4482C400.305 60.3417 398.605 41.0095 396.04 30.1053C392.341 14.4129 380.276 5.19434 380.276 5.19434C380.276 5.19434 377.979 27.8827 326.541 80.0021C307.958 98.8268 281.56 116.697 259.562 129.973C268.451 140.877 273.79 154.795 273.79 169.965C273.79 195.771 258.354 217.937 236.222 227.797C234.716 227.156 233.135 226.47 231.629 225.754C220.816 220.667 216.446 208.45 217.788 200.873C220.383 186.105 229.048 180.183 246.349 183.062C246.349 183.062 246.334 171.263 219.831 154.601C210.302 148.604 197.088 139.55 195.462 133.956C192.867 136.835 190.511 141.683 190.466 147.888C190.436 153.064 193.031 159.896 197.296 161.94C201.592 163.983 203.307 164.058 207.93 165.475C187.26 176.006 173.24 198.933 179.087 224.963C160.012 214.059 147.171 193.518 147.171 169.98C147.171 154.794 152.525 140.877 161.428 129.958C139.43 116.682 113.063 98.8268 94.4945 80.0021C43.0565 27.8827 40.7598 5.19434 40.7598 5.19434C40.7598 5.19434 28.6944 14.4129 24.9957 30.1053C22.4305 41.0095 20.7303 60.3417 32.7957 82.4482C45.2787 105.316 84.3385 126.93 95.6135 131.45C106.709 135.88 118.193 139.967 126.261 142.757C125.665 144.293 125.098 145.89 124.546 147.545C112.362 144.502 92.705 138.804 75.9268 130.242C24.6377 104.077 7.7701 74.8409 7.7701 74.8409C7.7701 74.8409 3.44505 93.8297 6.01025 109.388C9.03778 127.84 20.4917 141.265 35.4056 151.647C52.5716 163.595 89.4238 175.111 107.231 177.528C111.81 178.154 115.568 178.587 118.655 178.885C118.566 180.586 118.521 182.316 118.491 184.076C107.127 183.077 92.8838 180.81 79.6852 177.319C26.4275 163.268 6.05499 137.76 6.05499 137.76C6.05499 137.76 5.42861 156.286 10.6037 170.368C16.7483 187.075 29.0672 196.427 44.876 203.453C63.0713 211.538 100.505 214.402 117.567 213.462C118.849 213.388 120.296 213.328 121.444 213.283C121.787 214.864 121.951 216.55 122.354 218.072C116.448 218.221 109.364 218.922 103.324 218.817C90.7814 218.594 64.5474 216.013 51.4232 213.298C30.7376 209.017 15.6298 196.368 15.6298 196.368C15.6298 196.368 21.6252 217.952 27.5162 227.514C33.0492 236.494 39.9246 242.729 49.0072 246.905C57.4039 250.769 70.2298 251.873 87.6343 250.5C98.3277 249.665 123.801 245.802 133.495 244.295C134.464 245.936 135.448 247.517 136.448 249.009C130.184 250.799 114.017 255.065 94.3308 257.631C68.7085 260.972 48.7537 257.586 48.7537 257.586C48.7537 257.586 58.2391 269.922 65.2781 276.068C73.9435 283.646 80.774 286.39 97.6416 285.764C117.581 285.018 141.742 272.249 151.72 267.565C152.957 268.759 154.345 270.056 155.851 271.444C150.019 275.173 135.12 283.273 126.396 286.838C108.738 294.043 87.0823 296.564 87.0823 296.564C87.0823 296.564 100.222 313.091 120.311 313.36C141.116 313.643 152.794 304.38 158.878 300.218C162.622 297.668 168.796 291.358 173.002 286.853C174.359 288.046 175.716 289.254 177.073 290.448C173.181 296.355 165.605 306.245 154.911 312.718C135.807 324.309 126.992 323.876 126.992 323.876C126.992 323.876 145.918 338.718 161.637 335.347C176.402 332.185 188.736 314.27 194.001 305.469C195.477 306.796 196.864 308.05 198.162 309.228C197.058 311.853 195.537 315.06 193.538 318.431C180.727 340.106 167.752 347.519 167.752 347.519C167.752 347.519 173.613 354.918 196.133 364.032C201.517 366.21 206.319 367.672 210.272 368.686V368.805C210.346 368.79 210.421 368.761 210.496 368.746C210.57 368.761 210.645 368.79 210.719 368.805V368.686C214.671 367.672 219.474 366.21 224.857 364.032C247.378 354.918 253.239 347.519 253.239 347.519C253.239 347.519 240.264 340.106 227.453 318.431C225.454 315.06 223.948 311.853 222.829 309.228C224.127 308.05 225.514 306.782 226.99 305.469C232.255 314.27 244.604 332.185 259.353 335.347C275.073 338.718 293.999 323.876 293.999 323.876C293.999 323.876 285.2 324.309 266.08 312.718C255.387 306.23 247.795 296.34 243.918 290.448C245.275 289.254 246.632 288.046 247.989 286.853C252.195 291.358 258.369 297.668 262.113 300.218C268.198 304.365 279.89 313.643 300.68 313.36C320.754 313.091 333.908 296.564 333.908 296.564C333.908 296.564 312.253 294.043 294.595 286.838C285.871 283.273 270.971 275.173 265.14 271.444C266.647 270.056 268.033 268.759 269.271 267.565C279.249 272.249 303.409 285.018 323.35 285.764C340.202 286.39 347.033 283.646 355.698 276.068C362.722 269.922 372.223 257.586 372.223 257.586C372.223 257.586 352.268 260.972 326.645 257.631C306.959 255.065 290.792 250.784 284.528 249.009C285.528 247.502 286.497 245.921 287.481 244.295C297.175 245.787 322.648 249.65 333.342 250.5C350.746 251.873 363.572 250.769 371.969 246.905C381.052 242.729 387.927 236.494 393.46 227.514C399.351 217.952 405.346 196.368 405.346 196.368C405.346 196.368 390.253 209.017 369.553 213.298C356.414 216.013 330.195 218.594 317.652 218.817C311.612 218.922 304.528 218.221 298.622 218.072C299.04 216.55 299.189 214.864 299.532 213.283C300.68 213.343 302.112 213.403 303.409 213.462C320.471 214.402 357.905 211.538 376.1 203.453C391.909 196.427 404.228 187.06 410.372 170.368C415.548 156.286 414.921 137.76 414.921 137.76C414.921 137.76 394.548 163.268 341.291 177.319C328.092 180.795 313.849 183.062 302.485 184.076C302.455 182.316 302.41 180.571 302.321 178.885C305.408 178.587 309.166 178.154 313.745 177.528C331.597 175.111 368.449 163.595 385.63 151.647Z" fill="white" stroke="white" stroke-width="0.2"/>
</svg>
